<svg xmlns="http://www.w3.org/2000/svg" viewBox="0 0 468.73 562.85"><defs><style>.a{fill:#2f4858;}.b{fill:#86bbd8;}.c{fill:#f6ae2d;}.d{fill:#375e97;}.e{fill:#f26419;}.f{fill:#fff;}.g{fill:none;stroke:#375e97;stroke-miterlimit:10;stroke-width:2px;}</style></defs><title>iow_etusivu_kuva</title><path class="a" d="M315.23,157.9L272.3,83.54a6,6,0,0,1,0-6L315.23,3.18a6,6,0,0,1,5.2-3h85.86a6,6,0,0,1,5.2,3l42.93,74.36a6,6,0,0,1,0,6L411.49,157.9a6,6,0,0,1-5.2,3H320.43A6,6,0,0,1,315.23,157.9Z"/><path class="b" d="M57.69,356.3L14.76,281.94a6,6,0,0,1,0-6l42.93-74.36a6,6,0,0,1,5.2-3h85.86a6,6,0,0,1,5.2,3l42.93,74.36a6,6,0,0,1,0,6L153.94,356.3a6,6,0,0,1-5.2,3H62.89A6,6,0,0,1,57.69,356.3Z"/><path class="c" d="M315.23,356.3L272.3,281.94a6,6,0,0,1,0-6l42.93-74.36a6,6,0,0,1,5.2-3h85.86a6,6,0,0,1,5.2,3l42.93,74.36a6,6,0,0,1,0,6L411.49,356.3a6,6,0,0,1-5.2,3H320.43A6,6,0,0,1,315.23,356.3Z"/><path class="d" d="M57.69,157.9L14.76,83.54a6,6,0,0,1,0-6L57.69,3.18a6,6,0,0,1,5.2-3h85.86a6,6,0,0,1,5.2,3l42.93,74.36a6,6,0,0,1,0,6L153.95,157.9a6,6,0,0,1-5.2,3H62.89A6,6,0,0,1,57.69,157.9Z"/><rect class="e" x="0.45" y="399.22" width="468.73" height="163.82" rx="6" ry="6"/><path class="f" d="M68,83.49l0.69-.81a4.67,4.67,0,0,0,3.36,1.39c1.32,0,2.18-.7,2.18-1.67v0c0-.91-0.49-1.43-2.55-1.86-2.25-.49-3.29-1.22-3.29-2.83v0c0-1.54,1.36-2.68,3.22-2.68a5.12,5.12,0,0,1,3.45,1.2L74.43,77A4.31,4.31,0,0,0,71.6,76c-1.27,0-2.09.7-2.09,1.58v0c0,0.92.5,1.44,2.66,1.9s3.19,1.27,3.19,2.77v0c0,1.68-1.4,2.77-3.35,2.77A5.74,5.74,0,0,1,68,83.49Z"/><path class="f" d="M81,75h1l4.47,9.88H85.35l-1.15-2.59H78.87l-1.16,2.59H76.57Zm2.73,6.29-2.23-5-2.24,5h4.47Z"/><path class="f" d="M88.47,75.12h1L95.69,83V75.12h1.08v9.81H95.88l-6.33-8v8H88.47V75.12Z"/><path class="f" d="M103.16,75h1l4.47,9.88h-1.19l-1.15-2.59H101l-1.16,2.59H98.69Zm2.73,6.29-2.23-5-2.24,5h4.47Z"/><path class="f" d="M109.75,83.49l0.69-.81a4.67,4.67,0,0,0,3.36,1.39c1.32,0,2.18-.7,2.18-1.67v0c0-.91-0.49-1.43-2.55-1.86-2.25-.49-3.29-1.22-3.29-2.83v0c0-1.54,1.36-2.68,3.22-2.68a5.12,5.12,0,0,1,3.45,1.2l-0.64.85A4.3,4.3,0,0,0,113.34,76c-1.28,0-2.09.7-2.09,1.58v0c0,0.92.5,1.44,2.66,1.9s3.19,1.27,3.19,2.77v0c0,1.68-1.4,2.77-3.35,2.77A5.74,5.74,0,0,1,109.75,83.49Z"/><path class="f" d="M121.74,76.14h-3.29v-1h7.71v1h-3.29v8.78h-1.12V76.14Z"/><path class="f" d="M127.11,80v0a5,5,0,1,1,10,0v0A5,5,0,1,1,127.11,80ZM136,80v0a3.9,3.9,0,0,0-3.87-4,3.85,3.85,0,0,0-3.84,4v0a3.9,3.9,0,0,0,3.87,4A3.85,3.85,0,0,0,136,80Z"/><path class="f" d="M141.37,76.14h-3.29v-1h7.7v1h-3.29v8.78h-1.12V76.14Z"/><path class="f" d="M322.62,75.12h1.11V81l5.63-5.85h1.43l-4.2,4.29L331,84.92h-1.39l-3.77-4.75-2.09,2.12v2.63h-1.11V75.12Z"/><path class="f" d="M331.54,80v0a5,5,0,1,1,10,0v0A5,5,0,1,1,331.54,80Zm8.85,0v0a3.9,3.9,0,0,0-3.87-4,3.85,3.85,0,0,0-3.84,4v0a3.9,3.9,0,0,0,3.87,4A3.85,3.85,0,0,0,340.39,80Z"/><path class="f" d="M343.44,80v0a5,5,0,1,1,10,0v0A5,5,0,1,1,343.44,80Zm8.85,0v0a3.9,3.9,0,0,0-3.87-4,3.85,3.85,0,0,0-3.84,4v0a3.9,3.9,0,0,0,3.87,4A3.85,3.85,0,0,0,352.29,80Z"/><path class="f" d="M355.77,75.12h3.4A4.89,4.89,0,0,1,364.39,80v0a4.91,4.91,0,0,1-5.21,4.9h-3.4V75.12Zm3.4,8.78A3.79,3.79,0,0,0,363.24,80v0a3.82,3.82,0,0,0-4.06-3.88h-2.3V83.9h2.3Z"/><path class="f" d="M366.82,75.12h1.11v9.81h-1.11V75.12Z"/><path class="f" d="M370.15,83.49l0.69-.81a4.67,4.67,0,0,0,3.36,1.39c1.32,0,2.19-.7,2.19-1.67v0c0-.91-0.49-1.43-2.55-1.86-2.26-.49-3.29-1.22-3.29-2.83v0c0-1.54,1.36-2.68,3.22-2.68a5.11,5.11,0,0,1,3.45,1.2l-0.64.85A4.3,4.3,0,0,0,373.74,76c-1.27,0-2.09.7-2.09,1.58v0c0,0.92.5,1.44,2.66,1.9s3.19,1.27,3.19,2.77v0c0,1.68-1.4,2.77-3.35,2.77A5.74,5.74,0,0,1,370.15,83.49Z"/><path class="f" d="M382.14,76.14h-3.29v-1h7.7v1h-3.29v8.78h-1.12V76.14Z"/><path class="f" d="M387.51,80v0a5,5,0,1,1,10,0v0A5,5,0,1,1,387.51,80Zm8.85,0v0a3.9,3.9,0,0,0-3.87-4,3.85,3.85,0,0,0-3.84,4v0a3.9,3.9,0,0,0,3.87,4A3.85,3.85,0,0,0,396.37,80Z"/><path class="f" d="M401.77,76.14h-3.29v-1h7.7v1h-3.29v8.78h-1.12V76.14Z"/><path class="f" d="M33.81,274.54H30.51v-1h7.7v1H34.93v8.78H33.81v-8.78Z"/><path class="f" d="M40.38,273.52h1.11v9.81H40.38v-9.81Z"/><path class="f" d="M44.36,273.52h7.09v1h-6v3.35h5.35v1H45.47v3.43h6.05v1H44.36v-9.81Z"/><path class="f" d="M56.33,274.54H53v-1h7.7v1H57.45v8.78H56.33v-8.78Z"/><path class="f" d="M61.71,278.45v0a5,5,0,1,1,10,0v0A5,5,0,1,1,61.71,278.45Zm8.85,0v0a3.9,3.9,0,0,0-3.87-4,3.85,3.85,0,0,0-3.84,4v0a3.9,3.9,0,0,0,3.87,4A3.85,3.85,0,0,0,70.56,278.45Z"/><path class="f" d="M74,273.52h1.11v5.85l5.63-5.85h1.43L78,277.8l4.38,5.52H81l-3.77-4.75-2.09,2.12v2.63H74v-9.81Z"/><path class="f" d="M83,278.45v0a5,5,0,1,1,10,0v0A5,5,0,1,1,83,278.45Zm8.85,0v0a3.9,3.9,0,0,0-3.87-4,3.85,3.85,0,0,0-3.84,4v0a3.9,3.9,0,0,0,3.87,4A3.85,3.85,0,0,0,91.81,278.45Z"/><path class="f" d="M95.29,273.52h1.12l3.57,5.35,3.57-5.35h1.12v9.81h-1.11v-7.94L100,280.63H99.94l-3.57-5.24v7.93H95.29v-9.81Z"/><path class="f" d="M107.44,273.52h3.67c2.21,0,3.67,1.18,3.67,3.11v0c0,2.12-1.77,3.21-3.85,3.21h-2.38v3.46h-1.11v-9.81Zm3.53,5.34c1.63,0,2.69-.87,2.69-2.16v0c0-1.4-1.05-2.13-2.63-2.13h-2.48v4.31H111Z"/><path class="f" d="M116.36,278.45v0a5,5,0,1,1,10,0v0A5,5,0,1,1,116.36,278.45Zm8.85,0v0a3.9,3.9,0,0,0-3.87-4,3.85,3.85,0,0,0-3.84,4v0a3.9,3.9,0,0,0,3.87,4A3.85,3.85,0,0,0,125.21,278.45Z"/><path class="f" d="M128.7,273.52h1l6.18,7.86v-7.86H137v9.81h-0.88l-6.33-8v8H128.7v-9.81Z"/><path class="f" d="M139.75,273.52h7.09v1h-6v3.35h5.35v1h-5.35v3.43h6.05v1h-7.16v-9.81Z"/><path class="f" d="M149.14,273.52h1l6.18,7.86v-7.86h1.08v9.81h-0.88l-6.33-8v8h-1.08v-9.81Z"/><path class="f" d="M162.79,274.54h-3.29v-1h7.7v1h-3.29v8.78h-1.12v-8.78Z"/><path class="f" d="M169.37,273.52h1.11v9.81h-1.11v-9.81Z"/><path class="f" d="M175.93,274.54h-3.29v-1h7.7v1h-3.29v8.78h-1.12v-8.78Z"/><path class="f" d="M285.22,281.89l0.69-.81a4.67,4.67,0,0,0,3.36,1.39c1.32,0,2.18-.7,2.18-1.67v0c0-.91-0.49-1.43-2.55-1.86-2.25-.49-3.29-1.22-3.29-2.83v0c0-1.54,1.36-2.68,3.22-2.68a5.12,5.12,0,0,1,3.45,1.2l-0.64.85a4.3,4.3,0,0,0-2.83-1.06c-1.28,0-2.09.7-2.09,1.58v0c0,0.92.5,1.44,2.66,1.9s3.19,1.27,3.19,2.77v0c0,1.68-1.4,2.77-3.35,2.77A5.74,5.74,0,0,1,285.22,281.89Z"/><path class="f" d="M294.39,278.45v0a5,5,0,1,1,10,0v0A5,5,0,1,1,294.39,278.45Zm8.85,0v0a3.9,3.9,0,0,0-3.87-4,3.85,3.85,0,0,0-3.84,4v0a3.9,3.9,0,0,0,3.87,4A3.85,3.85,0,0,0,303.24,278.45Z"/><path class="f" d="M305.31,273.52h1.23L310,282l3.5-8.45h1.19l-4.22,9.88h-1Z"/><path class="f" d="M316.65,273.52h7.09v1h-6v3.35h5.35v1h-5.35v3.43h6.05v1h-7.16v-9.81Z"/><path class="f" d="M326,273.52h1.11v8.78h5.52v1H326v-9.81Z"/><path class="f" d="M335.88,274.54h-3.29v-1h7.7v1H337v8.78h-1.12v-8.78Z"/><path class="f" d="M344.73,273.45h1l4.47,9.88H349l-1.15-2.59h-5.34l-1.16,2.59h-1.13Zm2.73,6.29-2.23-5-2.24,5h4.47Z"/><path class="f" d="M352.16,273.52h1.12l3.57,5.35,3.57-5.35h1.12v9.81h-1.11v-7.94l-3.57,5.25h-0.06l-3.57-5.24v7.93h-1.08v-9.81Z"/><path class="f" d="M364.41,273.52h1.11v9.81h-1.11v-9.81Z"/><path class="f" d="M367.74,281.89l0.69-.81a4.67,4.67,0,0,0,3.36,1.39c1.32,0,2.18-.7,2.18-1.67v0c0-.91-0.49-1.43-2.55-1.86-2.25-.49-3.29-1.22-3.29-2.83v0c0-1.54,1.36-2.68,3.22-2.68a5.12,5.12,0,0,1,3.45,1.2l-0.64.85a4.31,4.31,0,0,0-2.83-1.06c-1.27,0-2.09.7-2.09,1.58v0c0,0.92.5,1.44,2.66,1.9s3.19,1.27,3.19,2.77v0c0,1.68-1.4,2.77-3.35,2.77A5.74,5.74,0,0,1,367.74,281.89Z"/><path class="f" d="M377.35,273.52H381c2.21,0,3.67,1.18,3.67,3.11v0c0,2.12-1.76,3.21-3.85,3.21h-2.38v3.46h-1.11v-9.81Zm3.53,5.34c1.63,0,2.69-.87,2.69-2.16v0c0-1.4-1.05-2.13-2.63-2.13h-2.48v4.31h2.42Z"/><path class="f" d="M386.7,273.52h4.22a3.87,3.87,0,0,1,2.79,1,2.71,2.71,0,0,1,.76,1.93v0a2.87,2.87,0,0,1-2.66,2.86l3,4h-1.36l-2.84-3.81h-2.8v3.81H386.7v-9.81Zm4.12,5c1.47,0,2.52-.76,2.52-2v0c0-1.2-.92-1.93-2.51-1.93h-3v4h3Z"/><path class="f" d="M396.39,278.45v0a5,5,0,1,1,10,0v0A5,5,0,1,1,396.39,278.45Zm8.85,0v0a3.9,3.9,0,0,0-3.87-4,3.85,3.85,0,0,0-3.84,4v0a3.9,3.9,0,0,0,3.87,4A3.85,3.85,0,0,0,405.24,278.45Z"/><path class="f" d="M408.72,273.52h7v1h-5.94V278h5.31v1h-5.31v4.27h-1.11v-9.81Z"/><path class="f" d="M418,273.52h1.11v9.81H418v-9.81Z"/><path class="f" d="M422.08,273.52h1.11v9.81h-1.11v-9.81Z"/><path class="f" d="M426.05,273.52h1.11v8.78h5.52v1h-6.63v-9.81Z"/><path class="f" d="M434.82,273.52h1.11v9.81h-1.11v-9.81Z"/><path class="f" d="M441.39,274.54h-3.29v-1h7.7v1h-3.29v8.78h-1.12v-8.78Z"/><path class="f" d="M155.69,435.21h7v1H156.8v3.5h5.31v1H156.8V445h-1.11v-9.81Z"/><path class="f" d="M167.94,441.13l-4.08-5.93h1.35l3.3,4.9,3.33-4.9h1.29l-4.08,5.91V445h-1.12v-3.88Z"/><path class="f" d="M177.9,441.13l-4.08-5.93h1.34l3.31,4.9,3.33-4.9h1.29L179,441.12V445H177.9v-3.88Z"/><path class="f" d="M183.72,443.59l0.69-.81a4.67,4.67,0,0,0,3.36,1.39c1.32,0,2.19-.7,2.19-1.67v0c0-.91-0.49-1.43-2.55-1.86-2.25-.49-3.29-1.22-3.29-2.83v0c0-1.54,1.36-2.67,3.22-2.67a5.12,5.12,0,0,1,3.45,1.2l-0.64.85a4.31,4.31,0,0,0-2.83-1.06c-1.27,0-2.09.7-2.09,1.58v0c0,0.92.5,1.44,2.66,1.9s3.19,1.28,3.19,2.77v0c0,1.68-1.4,2.77-3.35,2.77A5.74,5.74,0,0,1,183.72,443.59Z"/><path class="f" d="M193.42,435.21h1.11V445h-1.11v-9.81Z"/><path class="f" d="M196.75,443.59l0.69-.81a4.67,4.67,0,0,0,3.36,1.39c1.32,0,2.19-.7,2.19-1.67v0c0-.91-0.49-1.43-2.55-1.86-2.26-.49-3.29-1.22-3.29-2.83v0c0-1.54,1.36-2.67,3.22-2.67a5.12,5.12,0,0,1,3.45,1.2l-0.64.85a4.31,4.31,0,0,0-2.83-1.06c-1.27,0-2.09.7-2.09,1.58v0c0,0.92.5,1.44,2.66,1.9s3.19,1.28,3.19,2.77v0c0,1.68-1.4,2.77-3.35,2.77A5.74,5.74,0,0,1,196.75,443.59Z"/><path class="f" d="M206.36,435.21h7.09v1h-6v3.35h5.35v1h-5.35V444h6.05v1h-7.16v-9.81Z"/><path class="f" d="M218.33,436.23H215v-1h7.7v1h-3.29V445h-1.12v-8.78Z"/><path class="f" d="M231.6,436.23h-3.29v-1H236v1h-3.29V445H231.6v-8.78Z"/><path class="f" d="M238.18,435.21h1.11V445h-1.11v-9.81Z"/><path class="f" d="M242.15,435.21h7.09v1h-6v3.35h5.35v1h-5.35V444h6.05v1h-7.16v-9.81Z"/><path class="f" d="M254.13,436.23h-3.29v-1h7.7v1h-3.29V445h-1.12v-8.78Z"/><path class="f" d="M259.5,440.14v0a5,5,0,1,1,10,0v0A5,5,0,1,1,259.5,440.14Zm8.85,0v0a3.9,3.9,0,0,0-3.87-4,3.85,3.85,0,0,0-3.84,4v0a3.9,3.9,0,0,0,3.87,4A3.85,3.85,0,0,0,268.35,440.14Z"/><path class="f" d="M271.84,435.21H273l3.57,5.35,3.57-5.35h1.12V445h-1.11v-7.94l-3.57,5.25h-0.06l-3.57-5.24V445h-1.08v-9.81Z"/><path class="f" d="M287.62,435.14h1l4.47,9.88h-1.19l-1.15-2.59h-5.34L284.28,445h-1.13Zm2.73,6.29-2.23-5-2.24,5h4.47Z"/><path class="f" d="M295,435.21h1.11V444h5.52v1H295v-9.81Z"/><path class="f" d="M303.71,435.21h1.11V444h5.52v1h-6.62v-9.81Z"/><path class="f" d="M312.48,435.21h1.11V445h-1.11v-9.81Z"/><path class="f" d="M319,436.23h-3.29v-1h7.7v1h-3.29V445H319v-8.78Z"/><line class="g" x1="212.41" y1="80.54" x2="257.54" y2="80.54"/><line class="g" x1="212.41" y1="278.94" x2="257.54" y2="278.94"/><line class="g" x1="105.82" y1="167.12" x2="105.82" y2="193.12"/><line class="g" x1="366.77" y1="167.44" x2="366.77" y2="193.12"/><line class="g" x1="105.82" y1="366.22" x2="105.82" y2="392.22"/><line class="g" x1="366.77" y1="366.22" x2="366.77" y2="392.22"/><path class="f" d="M56.57,499.59h4.17a3.6,3.6,0,0,1,2.56.87,2.18,2.18,0,0,1,.63,1.57v0a2.37,2.37,0,0,1-1.56,2.27,2.47,2.47,0,0,1,2.1,2.37v0c0,1.68-1.42,2.68-3.56,2.68H56.57v-9.81Zm4,4.37c1.33,0,2.25-.6,2.25-1.75v0c0-1-.77-1.6-2.17-1.6h-3V504h2.9ZM61,508.4c1.49,0,2.41-.66,2.41-1.75v0c0-1.06-.9-1.68-2.6-1.68h-3.1v3.46H61Z"/><path class="f" d="M65.95,507.29v0c0-1.55,1.26-2.37,3.1-2.37a7.61,7.61,0,0,1,2.21.31V505a1.86,1.86,0,0,0-2.14-2,5,5,0,0,0-2.2.52l-0.32-.88a5.94,5.94,0,0,1,2.63-.62,3.21,3.21,0,0,1,2.34.8,2.86,2.86,0,0,1,.76,2.13v4.43H71.26v-1.08a3.18,3.18,0,0,1-2.61,1.23A2.43,2.43,0,0,1,65.95,507.29Zm5.32-.56v-0.67a7.44,7.44,0,0,0-2.12-.31c-1.34,0-2.12.59-2.12,1.46v0a1.6,1.6,0,0,0,1.82,1.44A2.17,2.17,0,0,0,71.27,506.73Z"/><path class="f" d="M74,508.47l0.55-.77a4.23,4.23,0,0,0,2.51.92,1.29,1.29,0,0,0,1.5-1.15v0c0-.73-0.85-1-1.81-1.27-1.13-.32-2.4-0.71-2.4-2v0A2.19,2.19,0,0,1,76.81,502a5,5,0,0,1,2.61.8l-0.49.81a4.09,4.09,0,0,0-2.14-.7,1.2,1.2,0,0,0-1.4,1v0c0,0.69.9,1,1.86,1.25,1.12,0.34,2.33.77,2.33,2.07v0c0,1.37-1.13,2.17-2.58,2.17A5,5,0,0,1,74,508.47Z"/><path class="f" d="M84.76,508.62a3,3,0,0,0,2.28-1l0.67,0.6a3.74,3.74,0,0,1-3,1.36A3.79,3.79,0,0,1,84.6,502c2.14,0,3.38,1.71,3.38,3.84,0,0.1,0,.21,0,0.38H82.21A2.53,2.53,0,0,0,84.76,508.62Zm2.12-3.28a2.38,2.38,0,0,0-2.31-2.44,2.5,2.5,0,0,0-2.35,2.44h4.67Z"/><path class="f" d="M89.56,504.62h3.89v1.13H89.56v-1.13Z"/><path class="f" d="M95,508.47l0.55-.77a4.23,4.23,0,0,0,2.51.92,1.29,1.29,0,0,0,1.5-1.15v0c0-.73-0.85-1-1.81-1.27-1.13-.32-2.4-0.71-2.4-2v0A2.19,2.19,0,0,1,97.78,502a5,5,0,0,1,2.61.8l-0.49.81a4.09,4.09,0,0,0-2.14-.7,1.2,1.2,0,0,0-1.4,1v0c0,0.69.9,1,1.86,1.25,1.12,0.34,2.33.77,2.33,2.07v0c0,1.37-1.13,2.17-2.58,2.17A5,5,0,0,1,95,508.47Z"/><path class="f" d="M102.54,499.17h1.08v7.06l3.91-4.08h1.34l-3,3.11,3.14,4.13h-1.29L105.09,506l-1.47,1.49v1.89h-1.08V499.17Z"/><path class="f" d="M113.35,508.62a3,3,0,0,0,2.28-1l0.67,0.6a3.74,3.74,0,0,1-3,1.36,3.79,3.79,0,0,1-.14-7.56c2.14,0,3.38,1.71,3.38,3.84,0,0.1,0,.21,0,0.38H110.8A2.53,2.53,0,0,0,113.35,508.62Zm2.12-3.28a2.38,2.38,0,0,0-2.31-2.44,2.5,2.5,0,0,0-2.35,2.44h4.66Z"/><path class="f" d="M121.64,508.62a3,3,0,0,0,2.28-1l0.67,0.6a3.74,3.74,0,0,1-3,1.36,3.79,3.79,0,0,1-.14-7.56c2.14,0,3.38,1.71,3.38,3.84,0,0.1,0,.21,0,0.38h-5.74A2.53,2.53,0,0,0,121.64,508.62Zm2.12-3.28a2.38,2.38,0,0,0-2.31-2.44,2.5,2.5,0,0,0-2.35,2.44h4.66Z"/><path class="f" d="M126.73,502.15h1.08v1.22a2.65,2.65,0,0,1,2.34-1.37,2.46,2.46,0,0,1,2.33,1.44A2.88,2.88,0,0,1,135,502a2.6,2.6,0,0,1,2.69,2.91v4.48h-1.08v-4.23c0-1.4-.7-2.18-1.88-2.18a2,2,0,0,0-2,2.24v4.17h-1.07v-4.26a1.86,1.86,0,0,0-1.86-2.16,2.1,2.1,0,0,0-2,2.28v4.13h-1.08v-7.24Z"/><path class="f" d="M139.5,507.29v0c0-1.55,1.26-2.37,3.1-2.37a7.6,7.6,0,0,1,2.21.31V505a1.85,1.85,0,0,0-2.14-2,5,5,0,0,0-2.2.52l-0.32-.88a5.93,5.93,0,0,1,2.63-.62,3.21,3.21,0,0,1,2.34.8,2.87,2.87,0,0,1,.76,2.13v4.43h-1.06v-1.08a3.18,3.18,0,0,1-2.61,1.23A2.43,2.43,0,0,1,139.5,507.29Zm5.32-.56v-0.67a7.45,7.45,0,0,0-2.12-.31c-1.34,0-2.12.59-2.12,1.46v0a1.6,1.6,0,0,0,1.82,1.44A2.17,2.17,0,0,0,144.82,506.73Z"/><path class="f" d="M148.46,507.47V503.1h-1v-1h1V500h1.08v2.18h2.3v1h-2.3v4.23a1.07,1.07,0,0,0,1.22,1.21,2.28,2.28,0,0,0,1.05-.25v0.92a2.73,2.73,0,0,1-1.3.31A1.84,1.84,0,0,1,148.46,507.47Z"/><path class="f" d="M74.43,521.19l-3.63-4.8h1.3l3,4,3-4h1.29l-3.63,4.79,3.77,5H78.21L75.08,522l-3.14,4.22H70.66Z"/><path class="f" d="M80.49,524.76l0.69-.81a4.67,4.67,0,0,0,3.36,1.39c1.32,0,2.19-.7,2.19-1.67v0c0-.91-0.49-1.43-2.55-1.86-2.25-.49-3.29-1.22-3.29-2.83v0c0-1.54,1.36-2.68,3.22-2.68a5.11,5.11,0,0,1,3.45,1.21l-0.64.85a4.31,4.31,0,0,0-2.83-1.06c-1.27,0-2.09.7-2.09,1.58v0c0,0.92.5,1.44,2.66,1.91s3.19,1.27,3.19,2.77v0c0,1.68-1.4,2.77-3.35,2.77A5.74,5.74,0,0,1,80.49,524.76Z"/><path class="f" d="M90.1,516.39h3.4a4.89,4.89,0,0,1,5.21,4.88v0a4.91,4.91,0,0,1-5.21,4.9H90.1v-9.81Zm3.4,8.78a3.8,3.8,0,0,0,4.06-3.85v0a3.82,3.82,0,0,0-4.06-3.88H91.2v7.76h2.3Z"/><path class="f" d="M99.74,527.41a1.12,1.12,0,0,0,.94-1.22h-0.5v-1.47h1.29V526a1.72,1.72,0,0,1-1.55,1.92Z"/><path class="f" d="M111.14,521.19l-3.63-4.8h1.3l3,4,3-4h1.29l-3.63,4.79,3.77,5h-1.32L111.78,522l-3.14,4.22h-1.27Z"/><path class="f" d="M118.26,516.39h1.12l3.57,5.35,3.57-5.35h1.12v9.81h-1.11v-7.94L123,523.5h-0.06l-3.57-5.24v7.93h-1.08v-9.81Z"/><path class="f" d="M130.41,516.39h1.11v8.78H137v1h-6.63v-9.81Z"/><path class="f" d="M267.71,499.59h4.22a3.87,3.87,0,0,1,2.79,1,2.71,2.71,0,0,1,.76,1.93v0a2.87,2.87,0,0,1-2.66,2.86l3,4h-1.36l-2.84-3.81h-2.8v3.81h-1.11v-9.81Zm4.12,5c1.47,0,2.52-.76,2.52-2v0c0-1.21-.92-1.93-2.51-1.93h-3v4h3Z"/><path class="f" d="M277.1,507.29v0c0-1.55,1.26-2.37,3.1-2.37a7.6,7.6,0,0,1,2.21.31V505a1.85,1.85,0,0,0-2.14-2,5,5,0,0,0-2.2.52l-0.32-.88a5.93,5.93,0,0,1,2.63-.62,3.21,3.21,0,0,1,2.34.8,2.87,2.87,0,0,1,.76,2.13v4.43h-1.06v-1.08a3.18,3.18,0,0,1-2.61,1.23A2.43,2.43,0,0,1,277.1,507.29Zm5.32-.56v-0.67a7.44,7.44,0,0,0-2.12-.31c-1.34,0-2.12.59-2.12,1.46v0a1.6,1.6,0,0,0,1.82,1.44A2.17,2.17,0,0,0,282.43,506.73Z"/><path class="f" d="M284.5,511.6v-0.88a3.64,3.64,0,0,0,.53,0,0.81,0.81,0,0,0,.83-1v-7.65h1.08v7.66a1.63,1.63,0,0,1-1.76,1.86A2.65,2.65,0,0,1,284.5,511.6Zm1.29-12.23H287v1.19h-1.23v-1.19Z"/><path class="f" d="M288.89,507.29v0c0-1.55,1.26-2.37,3.1-2.37a7.6,7.6,0,0,1,2.21.31V505a1.85,1.85,0,0,0-2.14-2,5.05,5.05,0,0,0-2.2.52l-0.32-.88a5.94,5.94,0,0,1,2.63-.62,3.21,3.21,0,0,1,2.34.8,2.86,2.86,0,0,1,.76,2.13v4.43H294.2v-1.08a3.18,3.18,0,0,1-2.61,1.23A2.43,2.43,0,0,1,288.89,507.29Zm5.32-.56v-0.67a7.45,7.45,0,0,0-2.12-.31c-1.35,0-2.12.59-2.12,1.46v0a1.6,1.6,0,0,0,1.82,1.44A2.17,2.17,0,0,0,294.22,506.73Z"/><path class="f" d="M297.54,502.15h1.08v1.46A3.26,3.26,0,0,1,301.4,502a3.53,3.53,0,0,1,3.46,3.75v0a3.55,3.55,0,0,1-3.46,3.77,3.27,3.27,0,0,1-2.77-1.54v3.63h-1.08v-9.48Zm6.21,3.64v0a2.61,2.61,0,0,0-2.55-2.8,2.7,2.7,0,0,0-2.62,2.79v0a2.7,2.7,0,0,0,2.62,2.8A2.56,2.56,0,0,0,303.75,505.79Z"/><path class="f" d="M306.87,499.38h1.23v1.19h-1.23v-1.19Zm0.07,2.77H308v7.24h-1.08v-7.24Z"/><path class="f" d="M310.52,502.15h1.08v1.26a2.74,2.74,0,0,1,2.48-1.41,2.64,2.64,0,0,1,2.77,2.9v4.5h-1.08v-4.23a1.93,1.93,0,0,0-2-2.18,2.13,2.13,0,0,0-2.17,2.27v4.15h-1.08v-7.24Z"/><path class="f" d="M319.52,507.47V503.1h-1v-1h1V500h1.08v2.18h2.3v1h-2.3v4.23a1.07,1.07,0,0,0,1.22,1.21,2.28,2.28,0,0,0,1.05-.25v0.92a2.73,2.73,0,0,1-1.3.31A1.84,1.84,0,0,1,319.52,507.47Z"/><path class="f" d="M324.25,507.29v0c0-1.55,1.26-2.37,3.1-2.37a7.6,7.6,0,0,1,2.21.31V505a1.85,1.85,0,0,0-2.14-2,5.05,5.05,0,0,0-2.2.52l-0.32-.88a5.94,5.94,0,0,1,2.63-.62,3.21,3.21,0,0,1,2.34.8,2.86,2.86,0,0,1,.76,2.13v4.43h-1.06v-1.08a3.18,3.18,0,0,1-2.61,1.23A2.43,2.43,0,0,1,324.25,507.29Zm5.32-.56v-0.67a7.45,7.45,0,0,0-2.12-.31c-1.35,0-2.12.59-2.12,1.46v0a1.6,1.6,0,0,0,1.82,1.44A2.17,2.17,0,0,0,329.58,506.73Z"/><path class="f" d="M332.91,502.15H334v1.22a2.64,2.64,0,0,1,2.34-1.37,2.46,2.46,0,0,1,2.33,1.44A2.88,2.88,0,0,1,341.2,502a2.6,2.6,0,0,1,2.69,2.91v4.48h-1.08v-4.23c0-1.4-.7-2.18-1.88-2.18a2,2,0,0,0-2,2.24v4.17h-1.06v-4.26A1.86,1.86,0,0,0,336,503a2.1,2.1,0,0,0-2,2.28v4.13h-1.08v-7.24Z"/><path class="f" d="M345.67,507.29v0c0-1.55,1.26-2.37,3.1-2.37a7.6,7.6,0,0,1,2.21.31V505a1.85,1.85,0,0,0-2.14-2,5.05,5.05,0,0,0-2.2.52l-0.32-.88A5.94,5.94,0,0,1,349,502a3.21,3.21,0,0,1,2.34.8A2.86,2.86,0,0,1,352,505v4.43H351v-1.08a3.18,3.18,0,0,1-2.61,1.23A2.43,2.43,0,0,1,345.67,507.29Zm5.32-.56v-0.67a7.45,7.45,0,0,0-2.12-.31c-1.35,0-2.12.59-2.12,1.46v0a1.6,1.6,0,0,0,1.82,1.44A2.17,2.17,0,0,0,351,506.73Zm-3.77-7h1.26v1.33h-1.26v-1.33Zm2.47,0H351v1.33H349.7v-1.33Z"/><path class="f" d="M353.78,507.29v0c0-1.55,1.26-2.37,3.1-2.37a7.61,7.61,0,0,1,2.21.31V505a1.86,1.86,0,0,0-2.14-2,5,5,0,0,0-2.2.52l-0.32-.88a5.94,5.94,0,0,1,2.63-.62,3.21,3.21,0,0,1,2.34.8,2.86,2.86,0,0,1,.76,2.13v4.43h-1.06v-1.08a3.18,3.18,0,0,1-2.61,1.23A2.43,2.43,0,0,1,353.78,507.29Zm5.32-.56v-0.67a7.44,7.44,0,0,0-2.12-.31c-1.34,0-2.12.59-2.12,1.46v0a1.6,1.6,0,0,0,1.82,1.44A2.17,2.17,0,0,0,359.1,506.73Zm-3.77-7h1.26v1.33h-1.26v-1.33Zm2.46,0h1.26v1.33H357.8v-1.33Z"/><path class="f" d="M362.43,502.15h1.08V504a3.1,3.1,0,0,1,3-2v1.16h-0.08c-1.58,0-2.87,1.13-2.87,3.32v2.89h-1.08v-7.24Z"/><path class="f" d="M368.13,499.38h1.23v1.19h-1.23v-1.19Zm0.07,2.77h1.08v7.24H368.2v-7.24Z"/><path class="f" d="M372.16,507.47V503.1h-1v-1h1V500h1.08v2.18h2.3v1h-2.3v4.23a1.07,1.07,0,0,0,1.22,1.21,2.27,2.27,0,0,0,1.05-.25v0.92a2.72,2.72,0,0,1-1.3.31A1.84,1.84,0,0,1,372.16,507.47Z"/><path class="f" d="M377,511.31l0.36-.85a2.26,2.26,0,0,0,1.13.27c0.64,0,1.05-.34,1.49-1.36l-3.29-7.21h1.19l2.63,6,2.33-6H384l-3,7.48c-0.62,1.5-1.32,2-2.41,2A3.29,3.29,0,0,1,377,511.31Z"/><path class="f" d="M385.71,499.17h1.08v7.06l3.91-4.08H392l-3,3.11,3.14,4.13h-1.29L388.26,506l-1.47,1.49v1.89h-1.08V499.17Z"/><path class="f" d="M393.08,508.47l0.54-.77a4.24,4.24,0,0,0,2.51.92,1.29,1.29,0,0,0,1.5-1.15v0c0-.73-0.85-1-1.81-1.27-1.13-.32-2.39-0.71-2.39-2v0a2.19,2.19,0,0,1,2.46-2.07,5,5,0,0,1,2.61.8l-0.49.81a4.09,4.09,0,0,0-2.14-.7,1.2,1.2,0,0,0-1.4,1v0c0,0.69.9,1,1.86,1.25,1.12,0.34,2.33.77,2.33,2.07v0c0,1.37-1.13,2.17-2.58,2.17A5,5,0,0,1,393.08,508.47Z"/><path class="f" d="M403.85,508.62a3,3,0,0,0,2.28-1l0.67,0.6a3.74,3.74,0,0,1-3,1.36,3.79,3.79,0,0,1-.14-7.56c2.14,0,3.38,1.71,3.38,3.84,0,0.1,0,.21,0,0.38H401.3A2.53,2.53,0,0,0,403.85,508.62Zm2.12-3.28a2.38,2.38,0,0,0-2.31-2.44,2.5,2.5,0,0,0-2.35,2.44H406Z"/><path class="f" d="M409.32,507.47V503.1h-1v-1h1V500h1.08v2.18h2.3v1h-2.3v4.23a1.07,1.07,0,0,0,1.22,1.21,2.28,2.28,0,0,0,1.05-.25v0.92a2.73,2.73,0,0,1-1.3.31A1.84,1.84,0,0,1,409.32,507.47Z"/><path class="f" d="M245.86,516.39h4.22a3.86,3.86,0,0,1,2.79,1,2.71,2.71,0,0,1,.76,1.93v0a2.87,2.87,0,0,1-2.66,2.86l3,4h-1.36l-2.84-3.81H247v3.81h-1.11v-9.81Zm4.12,5c1.47,0,2.52-.76,2.52-2v0c0-1.21-.92-1.93-2.51-1.93h-3v4h3Z"/><path class="f" d="M256,516.39h3.4a4.89,4.89,0,0,1,5.21,4.88v0a4.91,4.91,0,0,1-5.21,4.9H256v-9.81Zm3.4,8.78a3.79,3.79,0,0,0,4.06-3.85v0a3.82,3.82,0,0,0-4.06-3.88h-2.3v7.76h2.3Z"/><path class="f" d="M266.93,516.39h4.17a3.6,3.6,0,0,1,2.56.87,2.18,2.18,0,0,1,.63,1.57v0a2.37,2.37,0,0,1-1.56,2.27,2.47,2.47,0,0,1,2.1,2.37v0c0,1.68-1.41,2.68-3.56,2.68h-4.36v-9.81Zm4,4.37c1.33,0,2.26-.6,2.26-1.75v0c0-1-.77-1.6-2.17-1.6h-3v3.38h2.9Zm0.39,4.44c1.48,0,2.41-.66,2.41-1.75v0c0-1.06-.9-1.68-2.6-1.68H268v3.46h3.29Z"/><path class="f" d="M276.29,527.41a1.12,1.12,0,0,0,.94-1.22h-0.5v-1.47H278V526a1.72,1.72,0,0,1-1.55,1.92Z"/><path class="f" d="M287.69,521.19l-3.63-4.8h1.3l3,4,3-4h1.29L289,521.18l3.77,5h-1.32L288.33,522l-3.14,4.22h-1.27Z"/><path class="f" d="M294.81,516.39h1.12l3.57,5.35,3.57-5.35h1.12v9.81h-1.11v-7.94l-3.57,5.25h-0.06l-3.57-5.24v7.93h-1.08v-9.81Z"/><path class="f" d="M307,516.39h1.11v8.78h5.52v1H307v-9.81Z"/><path class="f" d="M314.89,527.41a1.12,1.12,0,0,0,.94-1.22h-0.5v-1.47h1.29V526a1.72,1.72,0,0,1-1.55,1.92Z"/><path class="f" d="M326.29,521.19l-3.63-4.8H324l3,4,3-4h1.29l-3.63,4.79,3.77,5h-1.32L326.93,522l-3.14,4.22h-1.27Z"/><path class="f" d="M332.35,524.76L333,524a4.66,4.66,0,0,0,3.36,1.39c1.32,0,2.19-.7,2.19-1.67v0c0-.91-0.49-1.43-2.55-1.86-2.25-.49-3.29-1.22-3.29-2.83v0c0-1.54,1.36-2.68,3.22-2.68a5.11,5.11,0,0,1,3.45,1.21l-0.64.85a4.31,4.31,0,0,0-2.83-1.06c-1.27,0-2.09.7-2.09,1.58v0c0,0.92.5,1.44,2.66,1.91s3.19,1.27,3.19,2.77v0c0,1.68-1.4,2.77-3.35,2.77A5.74,5.74,0,0,1,332.35,524.76Z"/><path class="f" d="M342,516.39h3.4a4.89,4.89,0,0,1,5.21,4.88v0a4.91,4.91,0,0,1-5.21,4.9H342v-9.81Zm3.4,8.78a3.79,3.79,0,0,0,4.06-3.85v0a3.82,3.82,0,0,0-4.06-3.88h-2.3v7.76h2.3Z"/><path class="f" d="M351.6,527.41a1.12,1.12,0,0,0,.94-1.22H352v-1.47h1.29V526a1.72,1.72,0,0,1-1.55,1.92Z"/><path class="f" d="M359,524.59l0.8-.69a2.52,2.52,0,0,0,2.24,1.4c1.11,0,1.92-.8,1.92-2.35v-6.57h1.12v6.56a3.54,3.54,0,0,1-.9,2.58,3,3,0,0,1-2.16.81A3.36,3.36,0,0,1,359,524.59Z"/><path class="f" d="M367.07,524.76l0.69-.81a4.67,4.67,0,0,0,3.36,1.39c1.32,0,2.19-.7,2.19-1.67v0c0-.91-0.49-1.43-2.55-1.86-2.26-.49-3.29-1.22-3.29-2.83v0c0-1.54,1.36-2.68,3.22-2.68a5.11,5.11,0,0,1,3.45,1.21l-0.64.85a4.31,4.31,0,0,0-2.83-1.06c-1.27,0-2.09.7-2.09,1.58v0c0,0.92.5,1.44,2.66,1.91s3.19,1.27,3.19,2.77v0c0,1.68-1.4,2.77-3.35,2.77A5.74,5.74,0,0,1,367.07,524.76Z"/><path class="f" d="M376.24,521.32v0a5,5,0,1,1,10,0v0A5,5,0,1,1,376.24,521.32Zm8.85,0v0a3.9,3.9,0,0,0-3.87-4,3.85,3.85,0,0,0-3.84,4v0a3.9,3.9,0,0,0,3.87,4A3.85,3.85,0,0,0,385.09,521.32Z"/><path class="f" d="M388.57,516.39h1l6.18,7.86v-7.86h1.08v9.81H396l-6.33-8v8h-1.08v-9.81Z"/><path class="f" d="M398.89,527.41a1.12,1.12,0,0,0,.94-1.22h-0.5v-1.47h1.29V526a1.72,1.72,0,0,1-1.55,1.92Z"/><path class="f" d="M406.83,521.32v0a4.94,4.94,0,0,1,5-5.07,5.11,5.11,0,0,1,3.82,1.55l-0.76.81a4.26,4.26,0,0,0-3.08-1.34,3.84,3.84,0,0,0-3.8,4v0a3.87,3.87,0,0,0,3.8,4,4.26,4.26,0,0,0,3.17-1.42l0.73,0.71a5.11,5.11,0,0,1-3.92,1.72A4.89,4.89,0,0,1,406.83,521.32Z"/><path class="f" d="M416.95,524.76l0.69-.81a4.67,4.67,0,0,0,3.36,1.39c1.32,0,2.18-.7,2.18-1.67v0c0-.91-0.49-1.43-2.55-1.86-2.25-.49-3.29-1.22-3.29-2.83v0c0-1.54,1.36-2.68,3.22-2.68a5.11,5.11,0,0,1,3.45,1.21l-0.64.85a4.31,4.31,0,0,0-2.83-1.06c-1.28,0-2.09.7-2.09,1.58v0c0,0.92.5,1.44,2.66,1.91s3.19,1.27,3.19,2.77v0c0,1.68-1.4,2.77-3.35,2.77A5.73,5.73,0,0,1,416.95,524.76Z"/><path class="f" d="M425.29,516.39h1.23l3.49,8.45,3.5-8.45h1.19l-4.22,9.88h-1Z"/></svg>