<svg xmlns="http://www.w3.org/2000/svg" viewBox="0 0 468.73 562.85"><defs><style>.a{fill:#2f4858;}.b{fill:#86bbd8;}.c{fill:#f6ae2d;}.d{fill:#375e97;}.e{fill:#f26419;}.f{fill:#fff;}.g{fill:none;stroke:#375e97;stroke-miterlimit:10;stroke-width:2px;}</style></defs><title>iow_etusivu_kuva-en</title><path class="a" d="M314.78,157.72L271.85,83.36a6,6,0,0,1,0-6L314.78,3A6,6,0,0,1,320,0h85.86A6,6,0,0,1,411,3L454,77.36a6,6,0,0,1,0,6L411,157.72a6,6,0,0,1-5.2,3H320A6,6,0,0,1,314.78,157.72Z"/><path class="b" d="M57.24,356.12L14.31,281.76a6,6,0,0,1,0-6L57.24,201.4a6,6,0,0,1,5.2-3h85.86a6,6,0,0,1,5.2,3l42.93,74.36a6,6,0,0,1,0,6l-42.93,74.36a6,6,0,0,1-5.2,3H62.43A6,6,0,0,1,57.24,356.12Z"/><path class="c" d="M314.78,356.12l-42.93-74.36a6,6,0,0,1,0-6l42.93-74.36a6,6,0,0,1,5.2-3h85.86a6,6,0,0,1,5.2,3L454,275.76a6,6,0,0,1,0,6L411,356.12a6,6,0,0,1-5.2,3H320A6,6,0,0,1,314.78,356.12Z"/><path class="d" d="M57.24,157.72L14.31,83.36a6,6,0,0,1,0-6L57.24,3a6,6,0,0,1,5.2-3H148.3a6,6,0,0,1,5.2,3l42.93,74.36a6,6,0,0,1,0,6l-42.93,74.36a6,6,0,0,1-5.2,3H62.43A6,6,0,0,1,57.24,157.72Z"/><rect class="e" y="399.04" width="468.73" height="163.82" rx="6" ry="6"/><path class="f" d="M55.17,76.37H51.88v-1h7.7v1H56.29v8.78H55.17V76.37Z"/><path class="f" d="M61.65,75.35h7.09v1h-6V79.7h5.35v1H62.76v3.43h6.05v1H61.65V75.35Z"/><path class="f" d="M71,75.35h4.22a3.87,3.87,0,0,1,2.79,1,2.71,2.71,0,0,1,.76,1.93v0a2.87,2.87,0,0,1-2.66,2.86l3,4H77.78l-2.84-3.81h-2.8v3.81H71V75.35Zm4.12,5c1.47,0,2.52-.76,2.52-2v0c0-1.2-.92-1.93-2.51-1.93h-3v4h3Z"/><path class="f" d="M81.15,75.35h1.12l3.57,5.35,3.57-5.35h1.12v9.81H89.43V77.21l-3.57,5.25H85.8l-3.57-5.24v7.93H81.15V75.35Z"/><path class="f" d="M93.4,75.35h1.11v9.81H93.4V75.35Z"/><path class="f" d="M97.38,75.35h1l6.18,7.86V75.35h1.08v9.81h-0.88l-6.33-8v8H97.38V75.35Z"/><path class="f" d="M108,80.28v0a5,5,0,1,1,10,0v0A5,5,0,1,1,108,80.28Zm8.85,0v0a3.9,3.9,0,0,0-3.87-4,3.85,3.85,0,0,0-3.84,4v0a3.9,3.9,0,0,0,3.87,4A3.85,3.85,0,0,0,116.86,80.28Z"/><path class="f" d="M120.34,75.35h1.11v8.78H127v1h-6.63V75.35Z"/><path class="f" d="M128,80.28v0a5,5,0,1,1,10,0v0A5,5,0,1,1,128,80.28Zm8.85,0v0a3.9,3.9,0,0,0-3.87-4,3.85,3.85,0,0,0-3.84,4v0a3.9,3.9,0,0,0,3.87,4A3.85,3.85,0,0,0,136.86,80.28Z"/><path class="f" d="M139.91,80.28v0a4.92,4.92,0,0,1,4.92-5.07,5.17,5.17,0,0,1,3.66,1.3l-0.71.84a4.17,4.17,0,0,0-3-1.12,3.83,3.83,0,0,0-3.73,4v0a3.79,3.79,0,0,0,3.88,4.08,4.61,4.61,0,0,0,2.83-1V80.91h-3v-1h4v3.91a5.94,5.94,0,0,1-3.94,1.5A4.81,4.81,0,0,1,139.91,80.28Z"/><path class="f" d="M154,81.27l-4.08-5.93h1.34l3.31,4.9,3.33-4.9h1.29l-4.08,5.91v3.89H154V81.27Z"/><path class="f" d="M298.54,75.35h4.22a3.87,3.87,0,0,1,2.79,1,2.71,2.71,0,0,1,.76,1.93v0a2.87,2.87,0,0,1-2.66,2.86l3,4h-1.36l-2.84-3.81h-2.8v3.81h-1.11V75.35Zm4.12,5c1.47,0,2.52-.76,2.52-2v0c0-1.2-.92-1.93-2.51-1.93h-3v4h3Z"/><path class="f" d="M308.66,75.35h7.09v1h-6v3.35h5.35v1h-5.35v3.43h6.05v1h-7.16V75.35Z"/><path class="f" d="M318,75.35h7v1h-5.94v3.5h5.31v1h-5.31v4.27H318V75.35Z"/><path class="f" d="M327.22,75.35h7.09v1h-6v3.35h5.35v1h-5.35v3.43h6.05v1h-7.16V75.35Z"/><path class="f" d="M336.6,75.35h4.22a3.86,3.86,0,0,1,2.79,1,2.71,2.71,0,0,1,.76,1.93v0a2.87,2.87,0,0,1-2.66,2.86l3,4h-1.36l-2.84-3.81h-2.8v3.81H336.6V75.35Zm4.12,5c1.47,0,2.52-.76,2.52-2v0c0-1.2-.92-1.93-2.51-1.93h-3v4h3Z"/><path class="f" d="M346.72,75.35h7.09v1h-6v3.35h5.35v1h-5.35v3.43h6.05v1h-7.16V75.35Z"/><path class="f" d="M356.1,75.35h1l6.18,7.86V75.35h1.08v9.81h-0.88l-6.33-8v8H356.1V75.35Z"/><path class="f" d="M366.73,80.28v0a4.94,4.94,0,0,1,5-5.07,5.1,5.1,0,0,1,3.82,1.56l-0.76.81a4.26,4.26,0,0,0-3.08-1.34,3.84,3.84,0,0,0-3.8,4v0a3.87,3.87,0,0,0,3.8,4,4.26,4.26,0,0,0,3.17-1.41l0.73,0.71a5.11,5.11,0,0,1-3.92,1.72A4.89,4.89,0,0,1,366.73,80.28Z"/><path class="f" d="M377.5,75.35h7.09v1h-6v3.35H384v1H378.6v3.43h6.05v1H377.5V75.35Z"/><path class="f" d="M391.07,75.35h3.4a4.89,4.89,0,0,1,5.21,4.87v0a4.91,4.91,0,0,1-5.21,4.9h-3.4V75.35Zm3.4,8.78a3.79,3.79,0,0,0,4.06-3.85v0a3.82,3.82,0,0,0-4.06-3.88h-2.3v7.76h2.3Z"/><path class="f" d="M405,75.28h1l4.47,9.88h-1.19l-1.15-2.59h-5.34l-1.16,2.59h-1.13Zm2.73,6.29-2.23-5-2.24,5h4.47Z"/><path class="f" d="M413.77,76.37h-3.29v-1h7.71v1h-3.29v8.78h-1.12V76.37Z"/><path class="f" d="M422.62,75.28h1l4.47,9.88h-1.19l-1.15-2.59h-5.34l-1.16,2.59h-1.13Zm2.73,6.29-2.23-5-2.24,5h4.47Z"/><path class="f" d="M54,278.68v0a4.94,4.94,0,0,1,5-5.07,5.1,5.1,0,0,1,3.82,1.56l-0.76.81a4.26,4.26,0,0,0-3.08-1.34,3.84,3.84,0,0,0-3.79,4v0a3.87,3.87,0,0,0,3.79,4,4.25,4.25,0,0,0,3.17-1.41L62.82,282a5.1,5.1,0,0,1-3.92,1.72A4.89,4.89,0,0,1,54,278.68Z"/><path class="f" d="M64,278.68v0a5,5,0,1,1,10,0v0A5,5,0,1,1,64,278.68Zm8.85,0v0a3.9,3.9,0,0,0-3.87-4,3.85,3.85,0,0,0-3.84,4v0a3.9,3.9,0,0,0,3.87,4A3.85,3.85,0,0,0,72.88,278.68Z"/><path class="f" d="M76.36,273.75h1.12l3.57,5.35,3.57-5.35h1.12v9.81H84.64v-7.94l-3.57,5.25H81l-3.57-5.24v7.93H76.36v-9.81Z"/><path class="f" d="M88.52,273.75h3.67c2.21,0,3.67,1.18,3.67,3.11v0c0,2.12-1.76,3.21-3.85,3.21H89.62v3.46H88.52v-9.81ZM92,279.09c1.63,0,2.69-.87,2.69-2.16v0c0-1.4-1-2.13-2.63-2.13H89.62v4.31H92Z"/><path class="f" d="M97.43,278.68v0a5,5,0,1,1,10,0v0A5,5,0,1,1,97.43,278.68Zm8.85,0v0a3.9,3.9,0,0,0-3.87-4,3.85,3.85,0,0,0-3.84,4v0a3.9,3.9,0,0,0,3.87,4A3.85,3.85,0,0,0,106.29,278.68Z"/><path class="f" d="M109.77,273.75h1l6.18,7.86v-7.86h1.08v9.81h-0.88l-6.33-8v8h-1.08v-9.81Z"/><path class="f" d="M120.83,273.75h7.09v1h-6v3.35h5.35v1h-5.35v3.43H128v1h-7.16v-9.81Z"/><path class="f" d="M130.21,273.75h1l6.18,7.86v-7.86h1.08v9.81h-0.88l-6.33-8v8h-1.08v-9.81Z"/><path class="f" d="M143.86,274.77h-3.29v-1h7.7v1H145v8.78h-1.12v-8.78Z"/><path class="f" d="M149.48,282.13l0.69-.81a4.67,4.67,0,0,0,3.36,1.39c1.32,0,2.19-.7,2.19-1.67v0c0-.91-0.49-1.43-2.55-1.86-2.25-.49-3.29-1.22-3.29-2.83v0c0-1.54,1.36-2.68,3.22-2.68a5.12,5.12,0,0,1,3.45,1.2l-0.64.85a4.3,4.3,0,0,0-2.83-1.06c-1.27,0-2.09.7-2.09,1.58v0c0,0.92.5,1.44,2.66,1.9s3.19,1.27,3.19,2.77v0c0,1.68-1.4,2.77-3.35,2.77A5.74,5.74,0,0,1,149.48,282.13Z"/><path class="f" d="M318.55,265.28h1l4.47,9.88h-1.19l-1.15-2.59h-5.34l-1.16,2.59h-1.13Zm2.73,6.29-2.23-5-2.24,5h4.47Z"/><path class="f" d="M326,265.35h3.67c2.21,0,3.67,1.18,3.67,3.11v0c0,2.12-1.77,3.21-3.85,3.21h-2.38v3.46H326v-9.81Zm3.53,5.34c1.63,0,2.69-.87,2.69-2.16v0c0-1.4-1.05-2.13-2.63-2.13h-2.48v4.31h2.42Z"/><path class="f" d="M335.34,265.35H339c2.21,0,3.67,1.18,3.67,3.11v0c0,2.12-1.76,3.21-3.85,3.21h-2.38v3.46h-1.11v-9.81Zm3.53,5.34c1.63,0,2.69-.87,2.69-2.16v0c0-1.4-1-2.13-2.63-2.13h-2.48v4.31h2.42Z"/><path class="f" d="M344.69,265.35h1.11v8.78h5.52v1h-6.62v-9.81Z"/><path class="f" d="M353.45,265.35h1.11v9.81h-1.11v-9.81Z"/><path class="f" d="M357,270.28v0a4.94,4.94,0,0,1,5-5.07,5.1,5.1,0,0,1,3.82,1.55l-0.76.81a4.26,4.26,0,0,0-3.08-1.34,3.84,3.84,0,0,0-3.8,4v0a3.87,3.87,0,0,0,3.8,4,4.26,4.26,0,0,0,3.17-1.42l0.73,0.71a5.11,5.11,0,0,1-3.92,1.72A4.89,4.89,0,0,1,357,270.28Z"/><path class="f" d="M371.39,265.28h1l4.47,9.88H375.7l-1.15-2.59h-5.34l-1.16,2.59h-1.13Zm2.73,6.29-2.23-5-2.24,5h4.47Z"/><path class="f" d="M380.15,266.37h-3.29v-1h7.7v1h-3.29v8.78h-1.12v-8.78Z"/><path class="f" d="M386.73,265.35h1.11v9.81h-1.11v-9.81Z"/><path class="f" d="M390.27,270.28v0a5,5,0,1,1,10,0v0A5,5,0,1,1,390.27,270.28Zm8.85,0v0a3.9,3.9,0,0,0-3.87-4,3.85,3.85,0,0,0-3.84,4v0a3.9,3.9,0,0,0,3.87,4A3.85,3.85,0,0,0,399.12,270.28Z"/><path class="f" d="M402.6,265.35h1l6.18,7.86v-7.86h1.08v9.81H410l-6.33-8v8H402.6v-9.81Z"/><path class="f" d="M328.48,282.15h3.67c2.21,0,3.67,1.18,3.67,3.11v0c0,2.12-1.77,3.21-3.85,3.21h-2.38V292h-1.11v-9.81Zm3.53,5.34c1.63,0,2.69-.87,2.69-2.16v0c0-1.4-1.05-2.13-2.63-2.13h-2.48v4.31H332Z"/><path class="f" d="M337.83,282.15H342a3.87,3.87,0,0,1,2.79,1,2.71,2.71,0,0,1,.76,1.93v0a2.87,2.87,0,0,1-2.66,2.86l3,4h-1.36l-2.84-3.81h-2.8V292h-1.11v-9.81Zm4.12,5c1.47,0,2.52-.76,2.52-2v0c0-1.21-.92-1.93-2.51-1.93h-3v4h3Z"/><path class="f" d="M347.52,287.08v0a5,5,0,1,1,10,0v0A5,5,0,1,1,347.52,287.08Zm8.85,0v0a3.9,3.9,0,0,0-3.87-4,3.85,3.85,0,0,0-3.84,4v0a3.9,3.9,0,0,0,3.87,4A3.85,3.85,0,0,0,356.37,287.08Z"/><path class="f" d="M359.85,282.15h7v1H361v3.5h5.31v1H361V292h-1.11v-9.81Z"/><path class="f" d="M369.13,282.15h1.11V292h-1.11v-9.81Z"/><path class="f" d="M373.11,282.15h1.11v8.78h5.52v1h-6.62v-9.81Z"/><path class="f" d="M381.77,282.15h7.09v1h-6v3.35h5.35v1h-5.35v3.43h6.05v1h-7.16v-9.81Z"/><path class="f" d="M390.51,290.53l0.69-.81a4.67,4.67,0,0,0,3.36,1.39c1.32,0,2.19-.7,2.19-1.67v0c0-.91-0.49-1.43-2.55-1.86-2.26-.49-3.29-1.22-3.29-2.83v0c0-1.54,1.36-2.67,3.22-2.67a5.12,5.12,0,0,1,3.45,1.2l-0.64.85a4.31,4.31,0,0,0-2.83-1.06c-1.27,0-2.09.7-2.09,1.58v0c0,0.92.5,1.44,2.66,1.9s3.19,1.28,3.19,2.77v0c0,1.68-1.4,2.77-3.35,2.77A5.74,5.74,0,0,1,390.51,290.53Z"/><path class="f" d="M144.75,435h3.67c2.21,0,3.67,1.18,3.67,3.11v0c0,2.12-1.76,3.21-3.85,3.21h-2.38v3.46h-1.11V435Zm3.53,5.34c1.63,0,2.69-.87,2.69-2.16v0c0-1.4-1-2.13-2.63-2.13h-2.48v4.31h2.42Z"/><path class="f" d="M154.1,435h1.11v4.36h5.66V435H162v9.81h-1.11v-4.41h-5.66v4.41H154.1V435Z"/><path class="f" d="M167.81,441L163.73,435h1.34l3.31,4.9,3.33-4.9H173l-4.08,5.91v3.89h-1.12V441Z"/><path class="f" d="M173.63,443.41l0.69-.81a4.67,4.67,0,0,0,3.36,1.39c1.32,0,2.19-.7,2.19-1.67v0c0-.91-0.49-1.43-2.55-1.86-2.25-.49-3.29-1.22-3.29-2.83v0c0-1.54,1.36-2.67,3.22-2.67a5.12,5.12,0,0,1,3.45,1.2l-0.64.85a4.31,4.31,0,0,0-2.83-1.06c-1.27,0-2.09.7-2.09,1.58v0c0,0.92.5,1.44,2.66,1.9s3.19,1.28,3.19,2.77v0c0,1.68-1.4,2.77-3.35,2.77A5.74,5.74,0,0,1,173.63,443.41Z"/><path class="f" d="M183.34,435h1.11v9.81h-1.11V435Z"/><path class="f" d="M186.88,440v0a4.94,4.94,0,0,1,5-5.07,5.1,5.1,0,0,1,3.82,1.55l-0.76.81a4.27,4.27,0,0,0-3.08-1.34,3.84,3.84,0,0,0-3.8,4v0a3.87,3.87,0,0,0,3.8,4,4.26,4.26,0,0,0,3.17-1.42l0.73,0.71a5.11,5.11,0,0,1-3.92,1.72A4.89,4.89,0,0,1,186.88,440Z"/><path class="f" d="M201.27,435h1l4.47,9.88h-1.19l-1.15-2.59H199.1l-1.16,2.59H196.8Zm2.73,6.29-2.23-5-2.24,5H204Z"/><path class="f" d="M208.7,435h1.11v8.78h5.52v1H208.7V435Z"/><path class="f" d="M221.57,435H225a4.89,4.89,0,0,1,5.21,4.88v0a4.91,4.91,0,0,1-5.21,4.9h-3.4V435Zm3.4,8.78A3.8,3.8,0,0,0,229,440v0a3.82,3.82,0,0,0-4.06-3.88h-2.3v7.76H225Z"/><path class="f" d="M235.5,435h1l4.47,9.88h-1.19l-1.15-2.59h-5.34l-1.16,2.59H231Zm2.73,6.29-2.23-5-2.24,5h4.47Z"/><path class="f" d="M244.26,436.05H241v-1h7.71v1h-3.29v8.78h-1.12v-8.78Z"/><path class="f" d="M253.11,435h1l4.47,9.88h-1.19l-1.15-2.59h-5.34l-1.16,2.59h-1.13Zm2.73,6.29-2.23-5-2.24,5h4.47Z"/><path class="f" d="M264.74,435h1.12l3.57,5.35L273,435h1.12v9.81H273v-7.94l-3.57,5.25H269.4l-3.57-5.24v7.93h-1.08V435Z"/><path class="f" d="M276.46,440v0a5,5,0,1,1,10,0v0A5,5,0,1,1,276.46,440Zm8.85,0v0a3.9,3.9,0,0,0-3.87-4,3.85,3.85,0,0,0-3.84,4v0a3.9,3.9,0,0,0,3.87,4A3.85,3.85,0,0,0,285.31,440Z"/><path class="f" d="M288.8,435h3.4a4.89,4.89,0,0,1,5.21,4.88v0a4.91,4.91,0,0,1-5.21,4.9h-3.4V435Zm3.4,8.78a3.8,3.8,0,0,0,4.06-3.85v0a3.82,3.82,0,0,0-4.06-3.88h-2.3v7.76h2.3Z"/><path class="f" d="M299.74,435h7.09v1h-6v3.35h5.35v1h-5.35v3.43h6.05v1h-7.16V435Z"/><path class="f" d="M309.12,435h1.11v8.78h5.52v1h-6.62V435Z"/><path class="f" d="M317.15,443.41l0.69-.81a4.68,4.68,0,0,0,3.36,1.39c1.32,0,2.18-.7,2.18-1.67v0c0-.91-0.49-1.43-2.55-1.86-2.25-.49-3.29-1.22-3.29-2.83v0c0-1.54,1.36-2.67,3.22-2.67a5.12,5.12,0,0,1,3.45,1.2l-0.64.85a4.31,4.31,0,0,0-2.83-1.06c-1.28,0-2.09.7-2.09,1.58v0c0,0.92.5,1.44,2.66,1.9s3.19,1.28,3.19,2.77v0c0,1.68-1.4,2.77-3.35,2.77A5.74,5.74,0,0,1,317.15,443.41Z"/><line class="g" x1="211.96" y1="80.36" x2="257.09" y2="80.36"/><line class="g" x1="211.96" y1="278.76" x2="257.09" y2="278.76"/><line class="g" x1="105.36" y1="166.94" x2="105.36" y2="192.94"/><line class="g" x1="366.32" y1="167.26" x2="366.32" y2="192.94"/><line class="g" x1="105.36" y1="366.04" x2="105.36" y2="392.04"/><line class="g" x1="366.32" y1="366.04" x2="366.32" y2="392.04"/><path class="f" d="M55.82,499.41H60a3.6,3.6,0,0,1,2.56.87,2.18,2.18,0,0,1,.63,1.57v0a2.37,2.37,0,0,1-1.56,2.27,2.47,2.47,0,0,1,2.1,2.37v0c0,1.68-1.42,2.68-3.56,2.68H55.82v-9.81Zm4,4.37c1.33,0,2.25-.6,2.25-1.75v0c0-1-.77-1.6-2.17-1.6h-3v3.38h2.9Zm0.39,4.44c1.49,0,2.41-.66,2.41-1.75v0c0-1.06-.9-1.68-2.6-1.68h-3.1v3.46H60.2Z"/><path class="f" d="M65.2,507.11v0c0-1.55,1.26-2.37,3.1-2.37a7.61,7.61,0,0,1,2.21.31V504.8a1.86,1.86,0,0,0-2.14-2,5,5,0,0,0-2.2.52l-0.32-.88a5.94,5.94,0,0,1,2.63-.62,3.21,3.21,0,0,1,2.34.8,2.86,2.86,0,0,1,.76,2.13v4.43H70.51v-1.08a3.18,3.18,0,0,1-2.61,1.23A2.43,2.43,0,0,1,65.2,507.11Zm5.32-.56v-0.67a7.44,7.44,0,0,0-2.12-.31c-1.34,0-2.12.59-2.12,1.46v0a1.6,1.6,0,0,0,1.82,1.44A2.17,2.17,0,0,0,70.52,506.55Z"/><path class="f" d="M73.25,508.29l0.55-.77a4.23,4.23,0,0,0,2.51.92,1.29,1.29,0,0,0,1.5-1.15v0c0-.73-0.85-1-1.81-1.27-1.13-.32-2.4-0.71-2.4-2v0a2.19,2.19,0,0,1,2.47-2.07,5,5,0,0,1,2.61.8l-0.49.81a4.09,4.09,0,0,0-2.14-.7,1.2,1.2,0,0,0-1.4,1v0c0,0.69.9,1,1.86,1.25,1.12,0.34,2.33.77,2.33,2.07v0c0,1.37-1.13,2.17-2.58,2.17A5,5,0,0,1,73.25,508.29Z"/><path class="f" d="M84,508.44a3,3,0,0,0,2.28-1L87,508a3.74,3.74,0,0,1-3,1.36,3.79,3.79,0,0,1-.14-7.56c2.14,0,3.38,1.71,3.38,3.84,0,0.1,0,.21,0,0.38H81.47A2.53,2.53,0,0,0,84,508.44Zm2.12-3.28a2.38,2.38,0,0,0-2.31-2.44,2.5,2.5,0,0,0-2.35,2.44h4.67Z"/><path class="f" d="M92.71,508.29l0.55-.77a4.23,4.23,0,0,0,2.51.92,1.29,1.29,0,0,0,1.5-1.15v0c0-.73-0.85-1-1.81-1.27-1.13-.32-2.39-0.71-2.39-2v0a2.19,2.19,0,0,1,2.46-2.07,5,5,0,0,1,2.61.8l-0.49.81a4.09,4.09,0,0,0-2.14-.7,1.2,1.2,0,0,0-1.4,1v0c0,0.69.9,1,1.86,1.25,1.12,0.34,2.33.77,2.33,2.07v0c0,1.37-1.13,2.17-2.58,2.17A5,5,0,0,1,92.71,508.29Z"/><path class="f" d="M99.83,505.63v0a3.77,3.77,0,0,1,6.61-2.49l-0.71.76a2.93,2.93,0,0,0-2.2-1.09,2.67,2.67,0,0,0-2.59,2.8v0a2.71,2.71,0,0,0,2.66,2.82,3,3,0,0,0,2.21-1.08L106.5,508A3.75,3.75,0,0,1,99.83,505.63Z"/><path class="f" d="M108.28,499h1.08v4.24a2.74,2.74,0,0,1,2.48-1.41,2.64,2.64,0,0,1,2.77,2.9v4.5h-1.08V505a1.93,1.93,0,0,0-2-2.18,2.13,2.13,0,0,0-2.17,2.27v4.15h-1.08V499Z"/><path class="f" d="M120.09,508.44a3,3,0,0,0,2.28-1L123,508a3.74,3.74,0,0,1-3,1.36,3.79,3.79,0,0,1-.14-7.56c2.14,0,3.38,1.71,3.38,3.84,0,0.1,0,.21,0,0.38h-5.74A2.53,2.53,0,0,0,120.09,508.44Zm2.12-3.28a2.38,2.38,0,0,0-2.31-2.44,2.5,2.5,0,0,0-2.35,2.44h4.66Z"/><path class="f" d="M125.19,502h1.08v1.22a2.65,2.65,0,0,1,2.34-1.37,2.46,2.46,0,0,1,2.33,1.44,2.88,2.88,0,0,1,2.55-1.44,2.6,2.6,0,0,1,2.69,2.91v4.48h-1.08V505c0-1.4-.7-2.18-1.88-2.18a2,2,0,0,0-2,2.24v4.17h-1.07V505a1.86,1.86,0,0,0-1.86-2.16,2.1,2.1,0,0,0-2,2.28v4.13h-1.08V502Z"/><path class="f" d="M138,507.11v0c0-1.55,1.26-2.37,3.1-2.37a7.6,7.6,0,0,1,2.21.31V504.8a1.85,1.85,0,0,0-2.14-2,5,5,0,0,0-2.2.52l-0.32-.88a5.93,5.93,0,0,1,2.63-.62,3.21,3.21,0,0,1,2.34.8,2.87,2.87,0,0,1,.76,2.13v4.43h-1.06v-1.08a3.18,3.18,0,0,1-2.61,1.23A2.43,2.43,0,0,1,138,507.11Zm5.32-.56v-0.67a7.45,7.45,0,0,0-2.12-.31c-1.34,0-2.12.59-2.12,1.46v0a1.6,1.6,0,0,0,1.82,1.44A2.17,2.17,0,0,0,143.28,506.55Z"/><path class="f" d="M146,508.29l0.55-.77a4.23,4.23,0,0,0,2.51.92,1.29,1.29,0,0,0,1.5-1.15v0c0-.73-0.85-1-1.81-1.27-1.13-.32-2.39-0.71-2.39-2v0a2.19,2.19,0,0,1,2.46-2.07,5,5,0,0,1,2.61.8l-0.49.81a4.09,4.09,0,0,0-2.14-.7,1.2,1.2,0,0,0-1.4,1v0c0,0.69.9,1,1.86,1.25,1.12,0.34,2.33.77,2.33,2.07v0c0,1.37-1.13,2.17-2.58,2.17A5,5,0,0,1,146,508.29Z"/><path class="f" d="M74,521l-3.63-4.8h1.3l3,4,3-4h1.29L75.31,521l3.77,5H77.76l-3.14-4.22L71.48,526H70.21Z"/><path class="f" d="M80,524.58l0.69-.81a4.67,4.67,0,0,0,3.36,1.39c1.32,0,2.19-.7,2.19-1.67v0c0-.91-0.49-1.43-2.55-1.86-2.25-.49-3.29-1.22-3.29-2.83v0c0-1.54,1.36-2.68,3.22-2.68a5.11,5.11,0,0,1,3.45,1.21l-0.64.85a4.31,4.31,0,0,0-2.83-1.06c-1.27,0-2.09.7-2.09,1.58v0c0,0.92.5,1.44,2.66,1.91s3.19,1.27,3.19,2.77v0c0,1.68-1.4,2.77-3.35,2.77A5.74,5.74,0,0,1,80,524.58Z"/><path class="f" d="M89.64,516.21H93a4.89,4.89,0,0,1,5.21,4.88v0A4.91,4.91,0,0,1,93,526h-3.4v-9.81ZM93,525a3.8,3.8,0,0,0,4.06-3.85v0A3.82,3.82,0,0,0,93,517.23h-2.3V525H93Z"/><path class="f" d="M99.29,527.23a1.12,1.12,0,0,0,.94-1.22h-0.5v-1.47H101v1.26a1.72,1.72,0,0,1-1.55,1.92Z"/><path class="f" d="M110.69,521l-3.63-4.8h1.3l3,4,3-4h1.29L112,521l3.77,5h-1.32l-3.14-4.22L108.19,526h-1.27Z"/><path class="f" d="M117.81,516.21h1.12l3.57,5.35,3.57-5.35h1.12V526h-1.11v-7.94l-3.57,5.25h-0.06l-3.57-5.24V526h-1.08v-9.81Z"/><path class="f" d="M130,516.21h1.11V525h5.52v1H130v-9.81Z"/><path class="f" d="M265.6,499.41h1.11v9.81H265.6v-9.81Z"/><path class="f" d="M269.39,502h1.08v1.26a2.74,2.74,0,0,1,2.48-1.41,2.64,2.64,0,0,1,2.77,2.9v4.5h-1.08V505a1.93,1.93,0,0,0-2-2.18,2.13,2.13,0,0,0-2.17,2.27v4.15h-1.08V502Z"/><path class="f" d="M278.39,507.29v-4.37h-1v-1h1v-2.18h1.08V502h2.3v1h-2.3v4.23a1.07,1.07,0,0,0,1.22,1.21,2.27,2.27,0,0,0,1.05-.25V509a2.72,2.72,0,0,1-1.3.31A1.84,1.84,0,0,1,278.39,507.29Z"/><path class="f" d="M286.65,508.44a3,3,0,0,0,2.28-1l0.67,0.6a3.74,3.74,0,0,1-3,1.36,3.79,3.79,0,0,1-.14-7.56c2.14,0,3.38,1.71,3.38,3.84,0,0.1,0,.21,0,0.38H284.1A2.53,2.53,0,0,0,286.65,508.44Zm2.12-3.28a2.38,2.38,0,0,0-2.31-2.44,2.5,2.5,0,0,0-2.35,2.44h4.66Z"/><path class="f" d="M291.75,502h1.08v1.89a3.1,3.1,0,0,1,3-2V503H295.7c-1.58,0-2.87,1.13-2.87,3.32v2.89h-1.08V502Z"/><path class="f" d="M297.82,502.92h-1V502h1v-0.63a2.56,2.56,0,0,1,.63-1.86,2.14,2.14,0,0,1,1.55-.56,3.28,3.28,0,0,1,1.19.18V500a3.6,3.6,0,0,0-1.05-.18c-0.84,0-1.26.5-1.26,1.54V502h2.3v0.92H298.9v6.29h-1.08v-6.29Z"/><path class="f" d="M301.8,507.11v0c0-1.55,1.26-2.37,3.1-2.37a7.61,7.61,0,0,1,2.21.31V504.8a1.85,1.85,0,0,0-2.14-2,5,5,0,0,0-2.2.52l-0.32-.88a5.93,5.93,0,0,1,2.63-.62,3.21,3.21,0,0,1,2.34.8,2.87,2.87,0,0,1,.76,2.13v4.43h-1.06v-1.08a3.18,3.18,0,0,1-2.61,1.23A2.43,2.43,0,0,1,301.8,507.11Zm5.32-.56v-0.67a7.44,7.44,0,0,0-2.12-.31c-1.34,0-2.12.59-2.12,1.46v0a1.6,1.6,0,0,0,1.82,1.44A2.17,2.17,0,0,0,307.12,506.55Z"/><path class="f" d="M310,505.63v0a3.77,3.77,0,0,1,6.61-2.49l-0.71.76a2.93,2.93,0,0,0-2.2-1.09,2.67,2.67,0,0,0-2.59,2.8v0a2.71,2.71,0,0,0,2.66,2.82,3,3,0,0,0,2.21-1.08l0.69,0.64A3.75,3.75,0,0,1,310,505.63Z"/><path class="f" d="M321.43,508.44a3,3,0,0,0,2.28-1l0.67,0.6a3.74,3.74,0,0,1-3,1.36,3.79,3.79,0,0,1-.14-7.56c2.14,0,3.38,1.71,3.38,3.84,0,0.1,0,.21,0,0.38h-5.74A2.53,2.53,0,0,0,321.43,508.44Zm2.12-3.28a2.38,2.38,0,0,0-2.31-2.44,2.5,2.5,0,0,0-2.35,2.44h4.67Z"/><path class="f" d="M330.3,505.61v0a3.55,3.55,0,0,1,3.46-3.77,3.26,3.26,0,0,1,2.77,1.54V499h1.08v10.23h-1.08v-1.46a3.25,3.25,0,0,1-2.77,1.61A3.53,3.53,0,0,1,330.3,505.61Zm6.28,0v0a2.69,2.69,0,0,0-2.62-2.79,2.56,2.56,0,0,0-2.55,2.79v0a2.61,2.61,0,0,0,2.55,2.8A2.7,2.7,0,0,0,336.58,505.6Z"/><path class="f" d="M343.21,508.44a3,3,0,0,0,2.28-1l0.67,0.6a3.74,3.74,0,0,1-3,1.36,3.79,3.79,0,0,1-.14-7.56c2.14,0,3.38,1.71,3.38,3.84,0,0.1,0,.21,0,0.38h-5.74A2.53,2.53,0,0,0,343.21,508.44Zm2.12-3.28a2.38,2.38,0,0,0-2.31-2.44,2.5,2.5,0,0,0-2.35,2.44h4.67Z"/><path class="f" d="M347.71,508.29l0.54-.77a4.24,4.24,0,0,0,2.51.92,1.29,1.29,0,0,0,1.5-1.15v0c0-.73-0.85-1-1.81-1.27-1.13-.32-2.39-0.71-2.39-2v0a2.19,2.19,0,0,1,2.46-2.07,5,5,0,0,1,2.61.8l-0.49.81a4.09,4.09,0,0,0-2.14-.7,1.2,1.2,0,0,0-1.4,1v0c0,0.69.9,1,1.86,1.25,1.12,0.34,2.33.77,2.33,2.07v0c0,1.37-1.13,2.17-2.58,2.17A5,5,0,0,1,347.71,508.29Z"/><path class="f" d="M354.83,505.63v0a3.77,3.77,0,0,1,6.61-2.49l-0.71.76a2.93,2.93,0,0,0-2.2-1.09,2.67,2.67,0,0,0-2.59,2.8v0a2.71,2.71,0,0,0,2.66,2.82,3,3,0,0,0,2.21-1.08L361.5,508A3.75,3.75,0,0,1,354.83,505.63Z"/><path class="f" d="M363.27,502h1.08v1.89a3.1,3.1,0,0,1,3-2V503h-0.08c-1.58,0-2.87,1.13-2.87,3.32v2.89h-1.08V502Z"/><path class="f" d="M369,499.2h1.23v1.19H369V499.2ZM369,502h1.08v7.24H369V502Z"/><path class="f" d="M372.63,502h1.08v1.46a3.25,3.25,0,0,1,2.77-1.61,3.53,3.53,0,0,1,3.46,3.75v0a3.55,3.55,0,0,1-3.46,3.77,3.27,3.27,0,0,1-2.77-1.54v3.63h-1.08V502Zm6.21,3.64v0a2.61,2.61,0,0,0-2.55-2.8,2.7,2.7,0,0,0-2.62,2.79v0a2.7,2.7,0,0,0,2.62,2.8A2.56,2.56,0,0,0,378.83,505.61Z"/><path class="f" d="M382.3,507.29v-4.37h-1v-1h1v-2.18h1.08V502h2.3v1h-2.3v4.23a1.07,1.07,0,0,0,1.22,1.21,2.28,2.28,0,0,0,1.05-.25V509a2.73,2.73,0,0,1-1.3.31A1.84,1.84,0,0,1,382.3,507.29Z"/><path class="f" d="M387.6,499.2h1.23v1.19H387.6V499.2Zm0.07,2.77h1.08v7.24h-1.08V502Z"/><path class="f" d="M390.81,505.63v0a3.78,3.78,0,0,1,7.55,0v0a3.76,3.76,0,0,1-3.8,3.78A3.71,3.71,0,0,1,390.81,505.63Zm6.44,0v0a2.74,2.74,0,0,0-2.69-2.83,2.67,2.67,0,0,0-2.65,2.8v0a2.72,2.72,0,0,0,2.68,2.82A2.67,2.67,0,0,0,397.25,505.63Z"/><path class="f" d="M400.3,502h1.08v1.26a2.74,2.74,0,0,1,2.48-1.41,2.64,2.64,0,0,1,2.77,2.9v4.5h-1.08V505a1.93,1.93,0,0,0-2-2.18,2.13,2.13,0,0,0-2.17,2.27v4.15H400.3V502Z"/><path class="f" d="M408.32,508.29l0.55-.77a4.23,4.23,0,0,0,2.51.92,1.29,1.29,0,0,0,1.5-1.15v0c0-.73-0.85-1-1.81-1.27-1.13-.32-2.39-0.71-2.39-2v0a2.19,2.19,0,0,1,2.46-2.07,5,5,0,0,1,2.61.8l-0.49.81a4.09,4.09,0,0,0-2.14-.7,1.2,1.2,0,0,0-1.4,1v0c0,0.69.9,1,1.86,1.25,1.12,0.34,2.33.77,2.33,2.07v0c0,1.37-1.13,2.17-2.58,2.17A5,5,0,0,1,408.32,508.29Z"/><path class="f" d="M245.4,516.21h4.22a3.86,3.86,0,0,1,2.79,1,2.71,2.71,0,0,1,.76,1.93v0A2.87,2.87,0,0,1,250.5,522l3,4h-1.36l-2.84-3.81h-2.8V526H245.4v-9.81Zm4.12,5c1.47,0,2.52-.76,2.52-2v0c0-1.21-.92-1.93-2.51-1.93h-3v4h3Z"/><path class="f" d="M255.52,516.21h3.4a4.89,4.89,0,0,1,5.21,4.88v0a4.91,4.91,0,0,1-5.21,4.9h-3.4v-9.81Zm3.4,8.78a3.79,3.79,0,0,0,4.06-3.85v0a3.82,3.82,0,0,0-4.06-3.88h-2.3V525h2.3Z"/><path class="f" d="M266.47,516.21h4.17a3.6,3.6,0,0,1,2.56.87,2.18,2.18,0,0,1,.63,1.57v0a2.37,2.37,0,0,1-1.56,2.27,2.47,2.47,0,0,1,2.1,2.37v0c0,1.68-1.41,2.68-3.56,2.68h-4.36v-9.81Zm4,4.37c1.33,0,2.26-.6,2.26-1.75v0c0-1-.77-1.6-2.17-1.6h-3v3.38h2.9Zm0.39,4.44c1.48,0,2.41-.66,2.41-1.75v0c0-1.06-.9-1.68-2.6-1.68h-3.1V525h3.29Z"/><path class="f" d="M275.84,527.23a1.12,1.12,0,0,0,.94-1.22h-0.5v-1.47h1.29v1.26a1.72,1.72,0,0,1-1.55,1.92Z"/><path class="f" d="M287.24,521l-3.63-4.8h1.3l3,4,3-4h1.29L288.57,521l3.77,5H291l-3.14-4.22L284.74,526h-1.27Z"/><path class="f" d="M294.36,516.21h1.12l3.57,5.35,3.57-5.35h1.12V526h-1.11v-7.94l-3.57,5.25H299l-3.57-5.24V526h-1.08v-9.81Z"/><path class="f" d="M306.51,516.21h1.11V525h5.52v1h-6.62v-9.81Z"/><path class="f" d="M314.44,527.23a1.12,1.12,0,0,0,.94-1.22h-0.5v-1.47h1.29v1.26a1.72,1.72,0,0,1-1.55,1.92Z"/><path class="f" d="M325.83,521l-3.63-4.8h1.3l3,4,3-4h1.29L327.16,521l3.77,5h-1.32l-3.14-4.22L323.34,526h-1.27Z"/><path class="f" d="M331.89,524.58l0.69-.81a4.66,4.66,0,0,0,3.36,1.39c1.32,0,2.19-.7,2.19-1.67v0c0-.91-0.49-1.43-2.55-1.86-2.25-.49-3.29-1.22-3.29-2.83v0c0-1.54,1.36-2.68,3.22-2.68a5.11,5.11,0,0,1,3.45,1.21l-0.64.85a4.31,4.31,0,0,0-2.83-1.06c-1.27,0-2.09.7-2.09,1.58v0c0,0.92.5,1.44,2.66,1.91s3.19,1.27,3.19,2.77v0c0,1.68-1.4,2.77-3.35,2.77A5.74,5.74,0,0,1,331.89,524.58Z"/><path class="f" d="M341.5,516.21h3.4a4.89,4.89,0,0,1,5.21,4.88v0a4.91,4.91,0,0,1-5.21,4.9h-3.4v-9.81Zm3.4,8.78a3.79,3.79,0,0,0,4.06-3.85v0a3.82,3.82,0,0,0-4.06-3.88h-2.3V525h2.3Z"/><path class="f" d="M351.14,527.23a1.12,1.12,0,0,0,.94-1.22h-0.5v-1.47h1.29v1.26a1.72,1.72,0,0,1-1.55,1.92Z"/><path class="f" d="M358.56,524.41l0.8-.69a2.52,2.52,0,0,0,2.24,1.4c1.11,0,1.92-.8,1.92-2.35v-6.57h1.12v6.56a3.54,3.54,0,0,1-.9,2.58,3,3,0,0,1-2.16.81A3.36,3.36,0,0,1,358.56,524.41Z"/><path class="f" d="M366.61,524.58l0.69-.81a4.67,4.67,0,0,0,3.36,1.39c1.32,0,2.19-.7,2.19-1.67v0c0-.91-0.49-1.43-2.55-1.86-2.26-.49-3.29-1.22-3.29-2.83v0c0-1.54,1.36-2.68,3.22-2.68a5.11,5.11,0,0,1,3.45,1.21l-0.64.85a4.31,4.31,0,0,0-2.83-1.06c-1.27,0-2.09.7-2.09,1.58v0c0,0.92.5,1.44,2.66,1.91s3.19,1.27,3.19,2.77v0c0,1.68-1.4,2.77-3.35,2.77A5.74,5.74,0,0,1,366.61,524.58Z"/><path class="f" d="M375.78,521.14v0a5,5,0,1,1,10,0v0A5,5,0,1,1,375.78,521.14Zm8.85,0v0a3.9,3.9,0,0,0-3.87-4,3.85,3.85,0,0,0-3.84,4v0a3.9,3.9,0,0,0,3.87,4A3.85,3.85,0,0,0,384.63,521.14Z"/><path class="f" d="M388.12,516.21h1l6.18,7.86v-7.86h1.08V526h-0.88l-6.33-8v8h-1.08v-9.81Z"/><path class="f" d="M398.43,527.23a1.12,1.12,0,0,0,.94-1.22h-0.5v-1.47h1.29v1.26a1.72,1.72,0,0,1-1.55,1.92Z"/><path class="f" d="M406.37,521.14v0a4.94,4.94,0,0,1,5-5.07,5.11,5.11,0,0,1,3.82,1.55l-0.76.81a4.26,4.26,0,0,0-3.08-1.34,3.84,3.84,0,0,0-3.8,4v0a3.87,3.87,0,0,0,3.8,4,4.26,4.26,0,0,0,3.17-1.42l0.73,0.71a5.11,5.11,0,0,1-3.92,1.72A4.89,4.89,0,0,1,406.37,521.14Z"/><path class="f" d="M416.49,524.58l0.69-.81a4.67,4.67,0,0,0,3.36,1.39c1.32,0,2.18-.7,2.18-1.67v0c0-.91-0.49-1.43-2.55-1.86-2.25-.49-3.29-1.22-3.29-2.83v0c0-1.54,1.36-2.68,3.22-2.68a5.11,5.11,0,0,1,3.45,1.21l-0.64.85a4.31,4.31,0,0,0-2.83-1.06c-1.28,0-2.09.7-2.09,1.58v0c0,0.92.5,1.44,2.66,1.91s3.19,1.27,3.19,2.77v0c0,1.68-1.4,2.77-3.35,2.77A5.73,5.73,0,0,1,416.49,524.58Z"/><path class="f" d="M424.84,516.21h1.23l3.49,8.45,3.5-8.45h1.19L430,526.08h-1Z"/></svg>