<?xml version="1.0" encoding="UTF-8" standalone="no"?>
<!-- Created with Inkscape (http://www.inkscape.org/) -->

<svg
   xmlns:dc="http://purl.org/dc/elements/1.1/"
   xmlns:cc="http://creativecommons.org/ns#"
   xmlns:rdf="http://www.w3.org/1999/02/22-rdf-syntax-ns#"
   xmlns:svg="http://www.w3.org/2000/svg"
   xmlns="http://www.w3.org/2000/svg"
   xmlns:sodipodi="http://sodipodi.sourceforge.net/DTD/sodipodi-0.dtd"
   xmlns:inkscape="http://www.inkscape.org/namespaces/inkscape"
   id="svg2"
   version="1.1"
   inkscape:version="0.91 r13725"
   xml:space="preserve"
   width="585.90997"
   height="703.56622"
   viewBox="0 0 585.90997 703.56622"
   sodipodi:docname="iow_etusivu_kuva-en.svg"><metadata
     id="metadata8"><rdf:RDF><cc:Work
         rdf:about=""><dc:format>image/svg+xml</dc:format><dc:type
           rdf:resource="http://purl.org/dc/dcmitype/StillImage" /><dc:title /></cc:Work></rdf:RDF></metadata><defs
     id="defs6"><clipPath
       clipPathUnits="userSpaceOnUse"
       id="clipPath16"><path
         d="m 0,562.853 468.728,0 L 468.728,0 0,0 0,562.853 Z"
         id="path18"
         inkscape:connector-curvature="0" /></clipPath><clipPath
       clipPathUnits="userSpaceOnUse"
       id="clipPath56"><path
         d="m 0,562.853 468.728,0 L 468.728,0 0,0 0,562.853 Z"
         id="path58"
         inkscape:connector-curvature="0" /></clipPath></defs><sodipodi:namedview
     pagecolor="#ffffff"
     bordercolor="#666666"
     borderopacity="1"
     objecttolerance="10"
     gridtolerance="10"
     guidetolerance="10"
     inkscape:pageopacity="0"
     inkscape:pageshadow="2"
     inkscape:window-width="1366"
     inkscape:window-height="706"
     id="namedview4"
     showgrid="false"
     inkscape:zoom="1.0098387"
     inkscape:cx="204.78078"
     inkscape:cy="477.69048"
     inkscape:window-x="-8"
     inkscape:window-y="-8"
     inkscape:window-maximized="1"
     inkscape:current-layer="g10" /><g
     id="g10"
     inkscape:groupmode="layer"
     inkscape:label="iow_etusivu_kuva_EN"
     transform="matrix(1.25,0,0,-1.25,0,703.56625)"><g
       id="g12"><g
         id="g14"
         clip-path="url(#clipPath16)"><g
           id="g20"
           transform="translate(314.7798,405.1356)"><path
             d="m 0,0 -42.931,74.358 c -1.072,1.857 -1.072,4.144 0,6 L 0,154.717 c 1.072,1.856 3.053,3 5.196,3 l 85.862,0 c 2.143,0 4.124,-1.144 5.196,-3 l 42.931,-74.359 c 1.072,-1.856 1.072,-4.143 0,-6 L 96.254,0 C 95.182,-1.856 93.201,-3 91.058,-3 L 5.196,-3 C 3.053,-3 1.072,-1.856 0,0"
             style="fill:#2f4858;fill-opacity:1;fill-rule:nonzero;stroke:none"
             id="path22"
             inkscape:connector-curvature="0" /></g><g
           id="g24"
           transform="translate(57.2368,206.7352)"><path
             d="m 0,0 -42.931,74.358 c -1.072,1.857 -1.072,4.144 0,6 L 0,154.717 c 1.072,1.856 3.053,3 5.196,3 l 85.862,0 c 2.143,0 4.124,-1.144 5.196,-3 l 42.931,-74.359 c 1.072,-1.856 1.072,-4.143 0,-6 L 96.254,0 C 95.182,-1.856 93.201,-3 91.058,-3 L 5.196,-3 C 3.053,-3 1.072,-1.856 0,0"
             style="fill:#86bbd8;fill-opacity:1;fill-rule:nonzero;stroke:none"
             id="path26"
             inkscape:connector-curvature="0" /></g><g
           id="g28"
           transform="translate(314.7803,206.7352)"><path
             d="m 0,0 -42.931,74.358 c -1.072,1.857 -1.072,4.144 0,6 L 0,154.717 c 1.072,1.856 3.053,3 5.196,3 l 85.862,0 c 2.143,0 4.124,-1.144 5.196,-3 l 42.931,-74.359 c 1.072,-1.856 1.072,-4.143 0,-6 L 96.254,0 C 95.182,-1.856 93.201,-3 91.058,-3 L 5.196,-3 C 3.053,-3 1.072,-1.856 0,0"
             style="fill:#f6ae2d;fill-opacity:1;fill-rule:nonzero;stroke:none"
             id="path30"
             inkscape:connector-curvature="0" /></g><g
           id="g32"
           transform="translate(57.2373,405.1361)"><path
             d="m 0,0 -42.931,74.358 c -1.072,1.857 -1.072,4.144 0,6 L 0,154.717 c 1.072,1.856 3.053,3 5.196,3 l 85.862,0 c 2.143,0 4.124,-1.144 5.196,-3 l 42.931,-74.359 c 1.072,-1.856 1.072,-4.143 0,-6 L 96.254,0 C 95.182,-1.856 93.201,-3 91.058,-3 L 5.196,-3 C 3.053,-3 1.072,-1.856 0,0"
             style="fill:#375e97;fill-opacity:1;fill-rule:nonzero;stroke:none"
             id="path34"
             inkscape:connector-curvature="0" /></g><g
           id="g36"
           transform="translate(462.728,0)"><path
             d="m 0,0 -456.728,0 c -3.314,0 -6,2.686 -6,6 l 0,151.815 c 0,3.314 2.686,6 6,6 l 456.728,0 c 3.314,0 6,-2.686 6,-6 L 6,6 C 6,2.686 3.314,0 0,0"
             style="fill:#f26419;fill-opacity:1;fill-rule:nonzero;stroke:none"
             id="path38"
             inkscape:connector-curvature="0" /></g></g></g><text
       transform="scale(1,-1)"
       style="font-style:normal;font-variant:normal;font-weight:normal;font-stretch:normal;font-size:16px;line-height:125%;font-family:'Gotham Book';-inkscape-font-specification:'Gotham Book, Normal';text-align:start;writing-mode:lr-tb;text-anchor:start;fill:#f9f9f9;fill-opacity:1;fill-rule:nonzero;stroke:none;"
       id="text40"
       sodipodi:linespacing="125%"
       x="43.766384"
       y="-477.77457"><tspan
         sodipodi:role="line"
         x="43.766384"
         y="-477.77457"
         id="tspan3479"
         style="font-style:normal;font-variant:normal;font-weight:normal;font-stretch:normal;font-size:16px;line-height:125%;font-family:'Gotham Book';-inkscape-font-specification:'Gotham Book, Normal';text-align:start;writing-mode:lr-tb;text-anchor:start;fill:#f9f9f9;">TERMINOLOGY</tspan><tspan
         sodipodi:role="line"
         id="tspan3452"
         x="43.766384"
         y="-457.77457"
         style="font-style:normal;font-variant:normal;font-weight:normal;font-stretch:normal;font-size:16px;line-height:125%;font-family:'Gotham Book';-inkscape-font-specification:'Gotham Book, Normal';text-align:start;writing-mode:lr-tb;text-anchor:start;fill:#f9f9f9;" /></text>
<g
       id="g52"><g
         id="g54"
         clip-path="url(#clipPath56)"><g
           id="g60"
           transform="translate(211.9599,482.4941)"><path
             d="M 0,0 45.126,0"
             style="fill:none;stroke:#375e97;stroke-width:2;stroke-linecap:butt;stroke-linejoin:miter;stroke-miterlimit:10;stroke-dasharray:none;stroke-opacity:1"
             id="path62"
             inkscape:connector-curvature="0" /></g><g
           id="g64"
           transform="translate(211.9599,284.0934)"><path
             d="M 0,0 45.126,0"
             style="fill:none;stroke:#375e97;stroke-width:2;stroke-linecap:butt;stroke-linejoin:miter;stroke-miterlimit:10;stroke-dasharray:none;stroke-opacity:1"
             id="path66"
             inkscape:connector-curvature="0" /></g><g
           id="g68"
           transform="translate(105.364,395.9087)"><path
             d="M 0,0 0,-26"
             style="fill:none;stroke:#375e97;stroke-width:2;stroke-linecap:butt;stroke-linejoin:miter;stroke-miterlimit:10;stroke-dasharray:none;stroke-opacity:1"
             id="path70"
             inkscape:connector-curvature="0" /></g><g
           id="g72"
           transform="translate(366.3181,395.5972)"><path
             d="M 0,0 0,-25.688"
             style="fill:none;stroke:#375e97;stroke-width:2;stroke-linecap:butt;stroke-linejoin:miter;stroke-miterlimit:10;stroke-dasharray:none;stroke-opacity:1"
             id="path74"
             inkscape:connector-curvature="0" /></g><g
           id="g76"
           transform="translate(105.364,196.8152)"><path
             d="M 0,0 0,-26"
             style="fill:none;stroke:#375e97;stroke-width:2;stroke-linecap:butt;stroke-linejoin:miter;stroke-miterlimit:10;stroke-dasharray:none;stroke-opacity:1"
             id="path78"
             inkscape:connector-curvature="0" /></g><g
           id="g80"
           transform="translate(366.3181,196.8152)"><path
             d="M 0,0 0,-26"
             style="fill:none;stroke:#375e97;stroke-width:2;stroke-linecap:butt;stroke-linejoin:miter;stroke-miterlimit:10;stroke-dasharray:none;stroke-opacity:1"
             id="path82"
             inkscape:connector-curvature="0" /></g></g></g><text
       transform="scale(1,-1)"
       style="font-style:normal;font-variant:normal;font-weight:normal;font-stretch:normal;font-size:14px;line-height:125%;font-family:'Gotham Book';-inkscape-font-specification:'Gotham Book, Normal';text-align:start;writing-mode:lr-tb;text-anchor:start;fill:#f9f9f9;fill-opacity:1;fill-rule:nonzero;stroke:none;"
       id="text84"
       sodipodi:linespacing="125%"
       x="249.11383"
       y="-61.143021"><tspan
         sodipodi:role="line"
         id="tspan3657"
         x="249.11383"
         y="-61.143021">Interface descriptions</tspan><tspan
         sodipodi:role="line"
         id="tspan3659"
         x="249.11383"
         y="-43.643021">RDB, XML, XSD, JSON, CSV</tspan></text>
<text
       style="font-style:normal;font-variant:normal;font-weight:normal;font-stretch:normal;font-size:16px;line-height:125%;font-family:'Gotham Book';-inkscape-font-specification:'Gotham Book, Normal';text-align:start;writing-mode:lr-tb;text-anchor:start;fill:#f2f2f2;fill-opacity:1;fill-rule:nonzero;stroke:none;"
       id="text40-7"
       sodipodi:linespacing="125%"
       x="47.09996"
       y="-290.52448"
       transform="scale(1,-1)"><tspan
         y="-290.52448"
         x="47.09996"
         sodipodi:role="line"
         id="tspan3452-1">       CORE</tspan><tspan
         y="-270.52448"
         x="47.09996"
         sodipodi:role="line"
         id="tspan3477">COMPONENTS</tspan></text>
<text
       style="font-style:normal;font-variant:normal;font-weight:normal;font-stretch:normal;font-size:16px;line-height:100%;font-family:'Gotham Book';-inkscape-font-specification:'Gotham Book, Normal';text-align:start;writing-mode:lr;text-anchor:start;fill:#f2f2f2;fill-opacity:1;fill-rule:nonzero;stroke:none;"
       id="text40-5"
       sodipodi:linespacing="100%"
       x="287.19473"
       y="-477.58948"
       transform="scale(1,-1)"><tspan
         sodipodi:role="line"
         x="287.19473"
         y="-477.58948"
         id="tspan3479-6">REFERENCE DATA</tspan><tspan
         sodipodi:role="line"
         id="tspan3452-18"
         x="287.19473"
         y="-457.58948" /></text>
<text
       style="font-style:normal;font-variant:normal;font-weight:normal;font-stretch:normal;font-size:16px;line-height:125%;font-family:'Gotham Book';-inkscape-font-specification:'Gotham Book, Normal';text-align:start;writing-mode:lr-tb;text-anchor:start;fill:#f2f2f2;fill-opacity:1;fill-rule:nonzero;stroke:none"
       id="text40-3"
       sodipodi:linespacing="125%"
       x="309.6658"
       y="-292.12836"
       transform="scale(1,-1)"><tspan
         sodipodi:role="line"
         id="tspan3572"
         x="309.6658"
         y="-292.12836">APPLICATION</tspan><tspan
         sodipodi:role="line"
         id="tspan3574"
         x="309.6658"
         y="-272.12836">   PROFILES</tspan><tspan
         sodipodi:role="line"
         id="tspan3576"
         x="309.6658"
         y="-252.12836" /></text>
<text
       style="font-style:normal;font-variant:normal;font-weight:normal;font-stretch:normal;font-size:16px;line-height:125%;font-family:'Gotham Book';-inkscape-font-specification:'Gotham Book, Normal';text-align:start;writing-mode:lr-tb;text-anchor:start;fill:#f9f9f9;fill-opacity:1;fill-rule:nonzero;stroke:none;"
       id="text40-3-7"
       sodipodi:linespacing="125%"
       x="137.3718"
       y="-113.24152"
       transform="scale(1,-1)"><tspan
         sodipodi:role="line"
         id="tspan3602"
         x="137.3718"
         y="-113.24152">PHYSICAL DATA MODELS</tspan></text>
<text
       y="-59.517632"
       x="44.38076"
       style="font-style:normal;font-variant:normal;font-weight:normal;font-stretch:normal;font-size:14px;line-height:125%;font-family:'Gotham Book';-inkscape-font-specification:'Gotham Book, Normal';text-align:start;writing-mode:lr-tb;text-anchor:start;fill:#f9f9f9;fill-opacity:1;fill-rule:nonzero;stroke:none;"
       id="text84-6"
       sodipodi:linespacing="125%"
       transform="scale(1,-1)"><tspan
         sodipodi:role="line"
         id="tspan3570"
         x="44.38076"
         y="-59.517632">Base schemas</tspan><tspan
         sodipodi:role="line"
         id="tspan3573"
         x="44.38076"
         y="-42.017632">XSD, JSON Schema</tspan></text>
</g></svg>