<?xml version="1.0" encoding="UTF-8" standalone="no"?>
<!-- Created with Inkscape (http://www.inkscape.org/) -->

<svg
   xmlns:dc="http://purl.org/dc/elements/1.1/"
   xmlns:cc="http://creativecommons.org/ns#"
   xmlns:rdf="http://www.w3.org/1999/02/22-rdf-syntax-ns#"
   xmlns:svg="http://www.w3.org/2000/svg"
   xmlns="http://www.w3.org/2000/svg"
   xmlns:sodipodi="http://sodipodi.sourceforge.net/DTD/sodipodi-0.dtd"
   xmlns:inkscape="http://www.inkscape.org/namespaces/inkscape"
   id="svg3476"
   version="1.1"
   inkscape:version="0.91 r13725"
   xml:space="preserve"
   width="585.90997"
   height="703.56622"
   viewBox="0 0 585.90997 703.56622"
   sodipodi:docname="iow_etusivu_kuva.svg"><metadata
     id="metadata3482"><rdf:RDF><cc:Work
         rdf:about=""><dc:format>image/svg+xml</dc:format><dc:type
           rdf:resource="http://purl.org/dc/dcmitype/StillImage" /><dc:title></dc:title></cc:Work></rdf:RDF></metadata><defs
     id="defs3480"><clipPath
       clipPathUnits="userSpaceOnUse"
       id="clipPath3490"><path
         d="m 0,562.853 468.728,0 L 468.728,0 0,0 0,562.853 Z"
         id="path3492"
         inkscape:connector-curvature="0" /></clipPath><clipPath
       clipPathUnits="userSpaceOnUse"
       id="clipPath3526"><path
         d="m 0,562.853 468.728,0 L 468.728,0 0,0 0,562.853 Z"
         id="path3528"
         inkscape:connector-curvature="0" /></clipPath></defs><sodipodi:namedview
     pagecolor="#ffffff"
     bordercolor="#666666"
     borderopacity="1"
     objecttolerance="10"
     gridtolerance="10"
     guidetolerance="10"
     inkscape:pageopacity="0"
     inkscape:pageshadow="2"
     inkscape:window-width="1366"
     inkscape:window-height="706"
     id="namedview3478"
     showgrid="false"
     inkscape:zoom="1.0305142"
     inkscape:cx="292.95499"
     inkscape:cy="402.8706"
     inkscape:window-x="-8"
     inkscape:window-y="-8"
     inkscape:window-maximized="1"
     inkscape:current-layer="g3484" /><g
     id="g3484"
     inkscape:groupmode="layer"
     inkscape:label="iow_etusivu_kuva_FI"
     transform="matrix(1.25,0,0,-1.25,0,703.56625)"><g
       id="g3486"><g
         id="g3488"
         clip-path="url(#clipPath3490)"><g
           id="g3494"
           transform="translate(314.7798,405.1356)"><path
             d="m 0,0 -42.931,74.358 c -1.072,1.857 -1.072,4.144 0,6 L 0,154.717 c 1.072,1.856 3.053,3 5.196,3 l 85.862,0 c 2.143,0 4.124,-1.144 5.196,-3 l 42.931,-74.359 c 1.072,-1.856 1.072,-4.143 0,-6 L 96.254,0 C 95.182,-1.856 93.201,-3 91.058,-3 L 5.196,-3 C 3.053,-3 1.072,-1.856 0,0"
             style="fill:#2f4858;fill-opacity:1;fill-rule:nonzero;stroke:none"
             id="path3496"
             inkscape:connector-curvature="0" /></g><g
           id="g3498"
           transform="translate(57.2368,206.7352)"><path
             d="m 0,0 -42.931,74.358 c -1.072,1.857 -1.072,4.144 0,6 L 0,154.717 c 1.072,1.856 3.053,3 5.196,3 l 85.862,0 c 2.143,0 4.124,-1.144 5.196,-3 l 42.931,-74.359 c 1.072,-1.856 1.072,-4.143 0,-6 L 96.254,0 C 95.182,-1.856 93.201,-3 91.058,-3 L 5.196,-3 C 3.053,-3 1.072,-1.856 0,0"
             style="fill:#86bbd8;fill-opacity:1;fill-rule:nonzero;stroke:none"
             id="path3500"
             inkscape:connector-curvature="0" /></g><g
           id="g3502"
           transform="translate(314.7803,206.7352)"><path
             d="m 0,0 -42.931,74.358 c -1.072,1.857 -1.072,4.144 0,6 L 0,154.717 c 1.072,1.856 3.053,3 5.196,3 l 85.862,0 c 2.143,0 4.124,-1.144 5.196,-3 l 42.931,-74.359 c 1.072,-1.856 1.072,-4.143 0,-6 L 96.254,0 C 95.182,-1.856 93.201,-3 91.058,-3 L 5.196,-3 C 3.053,-3 1.072,-1.856 0,0"
             style="fill:#f6ae2d;fill-opacity:1;fill-rule:nonzero;stroke:none"
             id="path3504"
             inkscape:connector-curvature="0" /></g><g
           id="g3506"
           transform="translate(57.2373,405.1361)"><path
             d="m 0,0 -42.931,74.358 c -1.072,1.857 -1.072,4.144 0,6 L 0,154.717 c 1.072,1.856 3.053,3 5.196,3 l 85.862,0 c 2.143,0 4.124,-1.144 5.196,-3 l 42.931,-74.359 c 1.072,-1.856 1.072,-4.143 0,-6 L 96.254,0 C 95.182,-1.856 93.201,-3 91.058,-3 L 5.196,-3 C 3.053,-3 1.072,-1.856 0,0"
             style="fill:#375e97;fill-opacity:1;fill-rule:nonzero;stroke:none"
             id="path3508"
             inkscape:connector-curvature="0" /></g><g
           id="g3510"
           transform="translate(462.728,0)"><path
             d="m 0,0 -456.728,0 c -3.314,0 -6,2.686 -6,6 l 0,151.815 c 0,3.314 2.686,6 6,6 l 456.728,0 c 3.314,0 6,-2.686 6,-6 L 6,6 C 6,2.686 3.314,0 0,0"
             style="fill:#f26419;fill-opacity:1;fill-rule:nonzero;stroke:none"
             id="path3512"
             inkscape:connector-curvature="0" /></g></g></g><text
       transform="matrix(1,0,0,-1,66.8218,478.1118)"
       style="font-variant:normal;font-weight:normal;font-stretch:normal;font-size:16px;font-family:'Gotham Book';-inkscape-font-specification:'Gotham Book, Normal';writing-mode:lr;fill:#f2f2f2;fill-opacity:1;fill-rule:nonzero;stroke:none;font-style:normal;text-anchor:start;text-align:start;line-height:125%;"
       id="text3514"
       sodipodi:linespacing="125%"><tspan
         x="0 8.75 19.809999 30.870001 41.734001 50.484001 58.883999 70.112 253.96001 263.31201 275.21201 287.112 298.06 302.134 310.8826 319.284 330.51199"
         y="0"
         sodipodi:role="line"
         id="tspan3516">SANASTOTKOODISTOT</tspan><tspan
         x="-37.450001 -28.378 -24.304001 -14.924 -6.5240002 5.3759999 14.728 26.628 38.779999 48.132 60.032001 71.092003 80.472 91.531998 100.604 104.678 217.196 226.15601 237.48199 247.98199 257.362 264.62799 272.44 283.5 295.65201 299.72601 308.686 318.03799 328.16 340.06 349.24399 353.31799 357.392 366.05801 370.13199"
         y="198.394"
         sodipodi:role="line"
         id="tspan3518">TIETOKOMPONENTITSOVELTAMISPROFIILIT</tspan><tspan
         x="87.024002 96.208 106.162 115.696 124.656 128.73 137.69 147.07001 156.142 160.342 169.414 173.48801 182.868 191.26801 203.168 215.32001 226.38 235.04601 243.71201 247.786"
         y="360.07999"
         sodipodi:role="line"
         id="tspan3520">FYYSISET TIETOMALLIT</tspan></text>
<g
       id="g3522"><g
         id="g3524"
         clip-path="url(#clipPath3526)"><g
           id="g3530"
           transform="translate(211.9599,482.4941)"><path
             d="M 0,0 45.126,0"
             style="fill:none;stroke:#375e97;stroke-width:2;stroke-linecap:butt;stroke-linejoin:miter;stroke-miterlimit:10;stroke-dasharray:none;stroke-opacity:1"
             id="path3532"
             inkscape:connector-curvature="0" /></g><g
           id="g3534"
           transform="translate(211.9599,284.0934)"><path
             d="M 0,0 45.126,0"
             style="fill:none;stroke:#375e97;stroke-width:2;stroke-linecap:butt;stroke-linejoin:miter;stroke-miterlimit:10;stroke-dasharray:none;stroke-opacity:1"
             id="path3536"
             inkscape:connector-curvature="0" /></g><g
           id="g3538"
           transform="translate(105.364,395.9087)"><path
             d="M 0,0 0,-26"
             style="fill:none;stroke:#375e97;stroke-width:2;stroke-linecap:butt;stroke-linejoin:miter;stroke-miterlimit:10;stroke-dasharray:none;stroke-opacity:1"
             id="path3540"
             inkscape:connector-curvature="0" /></g><g
           id="g3542"
           transform="translate(366.3181,395.5972)"><path
             d="M 0,0 0,-25.688"
             style="fill:none;stroke:#375e97;stroke-width:2;stroke-linecap:butt;stroke-linejoin:miter;stroke-miterlimit:10;stroke-dasharray:none;stroke-opacity:1"
             id="path3544"
             inkscape:connector-curvature="0" /></g><g
           id="g3546"
           transform="translate(105.364,196.8152)"><path
             d="M 0,0 0,-26"
             style="fill:none;stroke:#375e97;stroke-width:2;stroke-linecap:butt;stroke-linejoin:miter;stroke-miterlimit:10;stroke-dasharray:none;stroke-opacity:1"
             id="path3548"
             inkscape:connector-curvature="0" /></g><g
           id="g3550"
           transform="translate(366.3181,196.8152)"><path
             d="M 0,0 0,-26"
             style="fill:none;stroke:#375e97;stroke-width:2;stroke-linecap:butt;stroke-linejoin:miter;stroke-miterlimit:10;stroke-dasharray:none;stroke-opacity:1"
             id="path3552"
             inkscape:connector-curvature="0" /></g></g></g><text
       transform="matrix(1,0,0,-1,54.7261,53.6416)"
       style="font-variant:normal;font-weight:normal;font-stretch:normal;font-size:14px;font-family:'Gotham Book';-inkscape-font-specification:Gotham-Book;writing-mode:lr-tb;fill:#f2f2f2;fill-opacity:1;fill-rule:nonzero;stroke:none;"
       id="text3554"><tspan
         x="0 10.108 18.214001 25.186001 33.473999 39.186001 46.158001 53.773998 62.062 70.349998 83.664001 91.699997"
         y="0"
         sodipodi:role="line"
         id="tspan3556">Base-skeemat</tspan><tspan
         x="14.84 24.57 33.529999 43.917999 47.348 51.548 61.698002 73.849998"
         y="16.799999"
         sodipodi:role="line"
         id="tspan3558">XSD, XML</tspan><tspan
         x="211.14799 221.27 229.37601 233.058 241.164 250.46001 254.142 262.76599 268.422 276.52802 289.84201 297.948 306.05399 311.724 315.40601 321.06201 329.336 337.302 344.27399 352.56201"
         y="0"
         sodipodi:role="line"
         id="tspan3560">Rajapintamääritykset</tspan><tspan
         x="189.29401 199.416 210.364 220.472 223.90199 228.10201 238.252 250.40401 259.07001 262.5 266.70001 276.42999 285.39001 295.77802 299.20801 303.40799 311.14999 320.10999 332.01001 343.07001 346.5 350.70001 361.03201 369.57199"
         y="16.799999"
         sodipodi:role="line"
         id="tspan3562">RDB, XML, XSD, JSON, CSV</tspan></text>
</g></svg>